<svg id="visual" viewBox="0 0 960 540" width="960" height="540" xmlns="http://www.w3.org/2000/svg" xmlns:xlink="http://www.w3.org/1999/xlink" version="1.1"><rect x="0" y="0" width="960" height="540" fill="#f5f5f5"></rect><path d="M0 296L40 306.3C80 316.7 160 337.3 240 353.3C320 369.3 400 380.7 480 389.8C560 399 640 406 720 395.5C800 385 880 357 920 343L960 329L960 0L920 0C880 0 800 0 720 0C640 0 560 0 480 0C400 0 320 0 240 0C160 0 80 0 40 0L0 0Z" fill="#27ae60"></path><path d="M0 290L40 277.7C80 265.3 160 240.7 240 243C320 245.3 400 274.7 480 291.7C560 308.7 640 313.3 720 301C800 288.7 880 259.3 920 244.7L960 230L960 0L920 0C880 0 800 0 720 0C640 0 560 0 480 0C400 0 320 0 240 0C160 0 80 0 40 0L0 0Z" fill="#49b974"></path><path d="M0 250L40 242.7C80 235.3 160 220.7 240 208.8C320 197 400 188 480 184.8C560 181.7 640 184.3 720 190.7C800 197 880 207 920 212L960 217L960 0L920 0C880 0 800 0 720 0C640 0 560 0 480 0C400 0 320 0 240 0C160 0 80 0 40 0L0 0Z" fill="#63c388"></path><path d="M0 184L40 182.2C80 180.3 160 176.7 240 172.3C320 168 400 163 480 166C560 169 640 180 720 179C800 178 880 165 920 158.5L960 152L960 0L920 0C880 0 800 0 720 0C640 0 560 0 480 0C400 0 320 0 240 0C160 0 80 0 40 0L0 0Z" fill="#7bcd9c"></path><path d="M0 89L40 86.2C80 83.3 160 77.7 240 83.8C320 90 400 108 480 116.5C560 125 640 124 720 118.8C800 113.7 880 104.3 920 99.7L960 95L960 0L920 0C880 0 800 0 720 0C640 0 560 0 480 0C400 0 320 0 240 0C160 0 80 0 40 0L0 0Z" fill="#93d7af"></path></svg>