<svg xmlns="http://www.w3.org/2000/svg" viewBox="0 0 400 300" width="406" height="306" class="illustration styles_illustrationTablet__1DWOa"><g id="_415_family_meal_flatline" data-name="#415_family_meal_flatline"><polygon points="222.08 160.44 215.89 212.16 285.92 232 276.51 158.75 222.08 160.44" fill="#231f20"></polygon><path d="M285.92,232.5a.3.3,0,0,1-.13,0l-70-19.84a.5.5,0,0,1-.36-.54l6.19-51.72a.5.5,0,0,1,.48-.44l54.42-1.69a.52.52,0,0,1,.52.44l9.41,73.25a.49.49,0,0,1-.17.44A.5.5,0,0,1,285.92,232.5Zm-69.48-20.71,68.89,19.53-9.26-72-53.54,1.66Z" fill="#231f20"></path><path d="M185.31,139.42s10.12,13.5,21.17,12.58,38.67-31.92,38.67-31.92L229.5,94.92s-13.81,37.44-21.18,37.13-17.8-12.27-17.8-12.27Z" fill="#fff"></path><path d="M205.38,152.64c-10.77,0-20.14-12.32-20.55-12.87a.56.56,0,0,1-.1-.5L190,119.62a.59.59,0,0,1,1-.23c.1.11,10.35,11.78,17.38,12.07h.06c1.61,0,5.36-2.42,12.72-18.11,4.32-9.19,7.78-18.55,7.81-18.64a.6.6,0,0,1,.5-.38.57.57,0,0,1,.56.27l15.66,25.17a.6.6,0,0,1-.06.71c-1.14,1.27-27.91,31.18-39.07,32.11C206.15,152.62,205.76,152.64,205.38,152.64ZM186,139.29c1.38,1.73,10.65,12.93,20.48,12.12,10.09-.84,35-28.07,38-31.39L229.63,96.25c-2.65,7-14.24,36.69-21.33,36.39-6.47-.26-14.94-8.9-17.49-11.66Z" fill="#231f20"></path><path d="M179.17,104.43s-7.37,3.07-8,6.45.61,19.94,14.12,28.54l11.35-10.13s-13.17-7.47-12.28-12S185.31,103.82,179.17,104.43Z" fill="#d1d3d4"></path><path d="M185.3,140a.56.56,0,0,1-.31-.09c-13.42-8.54-15.11-25.2-14.39-29.15.66-3.59,7.55-6.56,8.34-6.89l.17,0a4.71,4.71,0,0,1,4.21,1.51c2.62,2.88,2.27,9,1.65,12.09-.67,3.34,8.42,9.32,12,11.33a.61.61,0,0,1,.3.46.58.58,0,0,1-.19.5L185.7,139.86A.59.59,0,0,1,185.3,140Zm-6-35c-2,.86-7.09,3.5-7.54,6-.68,3.74.91,19.41,13.48,27.69l10.41-9.28c-3-1.75-12.71-7.88-11.86-12.18.75-3.78.65-8.86-1.36-11.07A3.56,3.56,0,0,0,179.31,105Z" fill="#231f20"></path><path d="M243.77,26.35c.15-.12.3-.25.46-.36a13.36,13.36,0,0,1,4-2.16A14.45,14.45,0,0,1,258.77,25c5.1,2.47,11.27,7.33,12.39,13.15a13.31,13.31,0,0,1-2.55,10.59c-5.19,6.66-13.38,7.25-20.79,4.23C236.82,48.45,234.84,33.71,243.77,26.35Z" fill="#fff"></path><path d="M256.19,55.28a22.76,22.76,0,0,1-8.59-1.8,16.34,16.34,0,0,1-4.21-27.59l.48-.37a14,14,0,0,1,4.2-2.25,14.9,14.9,0,0,1,11,1.16C264.41,27,270.58,32,271.74,38a13.91,13.91,0,0,1-2.66,11.07A15.91,15.91,0,0,1,256.19,55.28ZM251.9,23.87a11.35,11.35,0,0,0-3.47.53,12.86,12.86,0,0,0-3.85,2.05l-.43.35h0A15.15,15.15,0,0,0,248,52.38c8,3.28,15.57,1.77,20.11-4a12.74,12.74,0,0,0,2.43-10.12c-1.08-5.6-7.17-10.36-12.07-12.73A15.27,15.27,0,0,0,251.9,23.87Zm-8.13,2.48h0Z" fill="#231f20"></path><path d="M263.18,43.94a10.72,10.72,0,0,0-2.45-5c-3.71-4.78-10.25-10.4-16.6-6.3a4.53,4.53,0,0,0-2.07,2.68c-.49,2.21,1.38,4.19,3.07,5.7l7.33,6.49c1.71,1.52,4.31,3,6.68,2.59,2.57-.42,4.34-3.68,4.05-6.13Z" fill="#231f20"></path><path d="M258.34,50.78c-2.88,0-5.48-2.09-6.27-2.79l-7.33-6.5c-1.81-1.6-3.81-3.76-3.26-6.27a5,5,0,0,1,2.33-3c7.45-4.82,14.64,2.89,17.39,6.43a11.12,11.12,0,0,1,2.56,5.25h0l-.58.08.59,0c.32,2.73-1.63,6.35-4.53,6.82A5.63,5.63,0,0,1,258.34,50.78Zm-9.57-18.94a7.83,7.83,0,0,0-4.32,1.33,4,4,0,0,0-1.81,2.3c-.42,1.91,1.32,3.74,2.89,5.13l7.33,6.5c.77.68,3.48,2.88,6.19,2.44,2.22-.36,3.8-3.31,3.55-5.47l.58-.13-.59.07a10.21,10.21,0,0,0-2.33-4.68C258.27,36.77,253.79,31.84,248.77,31.84Z" fill="#231f20"></path><path d="M216.68,42.69a19.3,19.3,0,0,1,3.65-6.37c5.5-6.21,14.94-7.4,22.21-3.79a7.07,7.07,0,0,0,2.19.85,12.65,12.65,0,0,0,2.73-.28c3.2-.32,6,1.94,8.37,4.15,7.78,7.37,8,23.89,3.75,32.91-3.34,7-11.25,12.49-19.25,12a12.24,12.24,0,0,1-10.12-6.1,20.92,20.92,0,0,1-1.34-3.42c-2.39,0-5,0-6.86-1.51a9.39,9.39,0,0,1-2.12-2.86C215.35,59.94,213.46,51.66,216.68,42.69Z" fill="#fff"></path><path d="M241.21,82.83c-.3,0-.61,0-.91,0a12.89,12.89,0,0,1-10.62-6.41,20,20,0,0,1-1.24-3.11c-2.54,0-5-.14-6.8-1.65a9.53,9.53,0,0,1-2.27-3c-5.18-9.55-6.21-17.85-3.25-26.11h0a19.91,19.91,0,0,1,3.77-6.56C225.34,29.77,235,28.12,242.8,32l.26.13a5.31,5.31,0,0,0,1.75.66,5.44,5.44,0,0,0,1.63-.13c.32-.06.64-.11,1-.15,3.4-.34,6.37,2,8.82,4.31,7.73,7.32,8.43,24.07,3.88,33.59C256.62,77.73,248.78,82.83,241.21,82.83ZM228.87,72.1a.57.57,0,0,1,.56.4,20.82,20.82,0,0,0,1.3,3.34,11.66,11.66,0,0,0,9.63,5.78c7.4.41,15.25-4.52,18.68-11.71,4.38-9.17,3.75-25.25-3.62-32.24-2.25-2.13-4.95-4.27-7.9-4-.29,0-.58.08-.88.13a6.48,6.48,0,0,1-2,.15,6.63,6.63,0,0,1-2.13-.78l-.25-.13c-7.36-3.65-16.4-2.12-21.5,3.65a18.68,18.68,0,0,0-3.55,6.17c-2.84,7.93-1.83,15.93,3.18,25.16a8.85,8.85,0,0,0,2,2.68c1.65,1.34,4,1.42,6.48,1.38Z" fill="#231f20"></path><path d="M222.08,160.44s-6.17-22-4.86-45.27c.74-13,4-20.12,7.37-26.09,6.28-11,41.5-13.29,54-1.12s-2.05,70.79-2.05,70.79Z" fill="#68e1fd"></path><path d="M233.91,79.7l1.77,12.71s2.61,6.61,8.53,6.76,10.88-13.53,10.88-13.53c-2-11.28-3.77-22.58-6.21-33.76a1,1,0,0,0-.31-.65,1.05,1.05,0,0,0-1,0l-3.18,1.16-1.76-6.09a18,18,0,0,0-1.38,3.76l-9.32,1.34-2.36-5.28a5.13,5.13,0,0,0-.15,3.09c.11,1,0,2.31-1,2.81a3,3,0,0,1-1.37.26l-7.19.26c-.06,0,3.12,18.86,3.57,20.4C225.36,79.41,233.91,79.7,233.91,79.7Z" fill="#fff"></path><path d="M244.31,99.77h-.11c-6.24-.17-9-6.86-9.07-7.15a.31.31,0,0,1,0-.13l-1.71-12.23c-1.93-.18-8.75-1.2-10.48-7.14-.06-.18-3.85-20.39-3.48-20.91a.57.57,0,0,1,.46-.24l7.19-.26a2.59,2.59,0,0,0,1.11-.19c.78-.43.69-1.81.65-2.23l-.05-.42a4.71,4.71,0,0,1,.28-3,.59.59,0,0,1,.54-.3.58.58,0,0,1,.51.35l2.18,4.87,8.48-1.22a19.24,19.24,0,0,1,1.33-3.5.6.6,0,0,1,1.1.1l1.58,5.48,2.58-.94a1.62,1.62,0,0,1,1.55.06,1.54,1.54,0,0,1,.54,1c1.87,8.56,3.38,17.34,4.84,25.83q.67,4,1.37,8a.65.65,0,0,1,0,.31C255.44,86.42,250.53,99.77,244.31,99.77Zm-8.05-7.52c.28.64,2.81,6.2,8,6.33h.08c4.42,0,8.77-9.22,10.17-13-.46-2.6-.9-5.2-1.35-7.79-1.46-8.48-3-17.25-4.82-25.79a1.25,1.25,0,0,0-.1-.31,1.16,1.16,0,0,0-.43.11L244.6,53a.63.63,0,0,1-.47,0,.58.58,0,0,1-.3-.37l-1.31-4.52a18.39,18.39,0,0,0-.69,2.18.59.59,0,0,1-.49.44L232,52a.61.61,0,0,1-.63-.35l-1.48-3.33c0,.13,0,.26,0,.39l.06.44c.17,1.63-.28,2.87-1.26,3.4a3.57,3.57,0,0,1-1.63.34l-6.54.23c.5,3.29,3.09,18.4,3.45,19.66,1.75,6,9.81,6.31,9.89,6.32a.59.59,0,0,1,.57.51Z" fill="#231f20"></path><path d="M245.33,62.26a6.66,6.66,0,0,1,6.25-5.52c3.77.08,4.28,4.26,3.49,7.11a6.8,6.8,0,0,1-8.46,4.67" fill="#fff"></path><path d="M248.52,69.39a7.37,7.37,0,0,1-2.08-.3.59.59,0,1,1,.34-1.14,6.19,6.19,0,0,0,7.71-4.26c.46-1.63.47-3.87-.52-5.21a2.93,2.93,0,0,0-2.4-1.15,6.11,6.11,0,0,0-5.65,5,.61.61,0,0,1-.66.53.6.6,0,0,1-.52-.66,7.3,7.3,0,0,1,6.74-6h.11a4.08,4.08,0,0,1,3.33,1.62c1.32,1.78,1.21,4.47.72,6.24a7.39,7.39,0,0,1-7.12,5.38Z" fill="#231f20"></path><path d="M229.94,57.78s-3.84,7.1-2.67,8.15,4.07,0,4.07,0" fill="#fff"></path><path d="M228.88,67a2.94,2.94,0,0,1-2-.63c-1.32-1.19,1-6.07,2.55-8.87a.59.59,0,0,1,1,.56c-1.84,3.39-3.13,6.88-2.78,7.45.65.58,2.47.23,3.46-.12a.59.59,0,1,1,.4,1.11A8.45,8.45,0,0,1,228.88,67Z" fill="#231f20"></path><path d="M233.91,79.7s5,.23,10.2-4.32c0,0-.92,9.24-9.24,11.2Z" fill="#231f20"></path><path d="M234.87,87.17a.57.57,0,0,1-.33-.11.61.61,0,0,1-.26-.4l-.95-6.88a.57.57,0,0,1,.15-.48.58.58,0,0,1,.46-.19c.07,0,4.8.14,9.78-4.18a.6.6,0,0,1,.66-.08.61.61,0,0,1,.32.59c0,.1-1.07,9.68-9.69,11.71Zm-.28-6.89.78,5.55c5.39-1.59,7.25-6.47,7.87-9A16.77,16.77,0,0,1,234.59,80.28Z" fill="#231f20"></path><ellipse cx="236.59" cy="57.08" rx="0.89" ry="2.03" transform="translate(-6.78 54.57) rotate(-12.97)" fill="#231f20"></ellipse><ellipse cx="225.21" cy="58.87" rx="0.89" ry="2.03" transform="translate(-6.78 39.78) rotate(-9.95)" fill="#231f20"></ellipse><path d="M230.84,70.55c-.73,0-1.35-.06-1.79-.1a2.79,2.79,0,0,0-.5,0,.61.61,0,0,1-.64-.54.59.59,0,0,1,.53-.64,3.49,3.49,0,0,1,.73,0c2,.19,7.32.69,8.7-5.47a.59.59,0,1,1,1.16.26C237.75,69.72,233.57,70.55,230.84,70.55Z" fill="#231f20"></path><path d="M188,115.17s-8.69.16-11.61.16,1-5,2.12-6.09,8.64-.87,8.64-.87v1.89s-5.63.1-6.23.28c-1.05.31-2.59,2.43-1.51,2.43s5.83-.15,5.83-.15Z" fill="#231f20"></path><path d="M176.43,115.83A1.39,1.39,0,0,1,175,115c-.77-1.86,3.17-6.11,3.22-6.15,1.13-1.14,7.18-1.07,9-1a.5.5,0,0,1,.48.5v1.89a.49.49,0,0,1-.49.5c-2.71,0-5.73.16-6.1.26a3.25,3.25,0,0,0-1.46,1.45c1.38,0,5.58-.15,5.62-.15a.42.42,0,0,1,.34.12l2.77,2.35a.52.52,0,0,1,.14.55.48.48,0,0,1-.46.33C188,115.67,179.32,115.83,176.43,115.83Zm9.25-7c-3.13,0-6.29.25-6.78.74-1.2,1.2-3.34,4.23-3,5.06.06.15.31.18.52.18,2.19,0,7.73-.09,10.28-.14l-1.61-1.36c-.91,0-4.69.14-5.65.14a.8.8,0,0,1-.86-.68c-.13-.9,1.26-2.44,2.23-2.73.56-.16,4.18-.25,5.87-.29v-.91Z" fill="#231f20"></path><path d="M183.92,105.39v27c0,4.45,11.11,8,24.81,8s24.81-3.6,24.81-8v-27Z" fill="#fff"></path><path d="M208.73,141c-14.19,0-25.31-3.76-25.31-8.55v-27a.51.51,0,0,1,.5-.5h49.62a.51.51,0,0,1,.5.5v27C234,137.19,222.92,141,208.73,141Zm-24.31-35.06V132.4c0,3.65,9.77,7.55,24.31,7.55S233,136.05,233,132.4V105.89Z" fill="#231f20"></path><path d="M233.54,105.39c0,1.33-1,2.59-2.76,3.69-4.12,2.59-12.44,4.36-22.05,4.36s-17.93-1.77-22-4.36c-1.77-1.1-2.76-2.36-2.76-3.69,0-4.45,11.11-8,24.81-8S233.54,100.94,233.54,105.39Z" fill="#fff"></path><path d="M208.73,113.94c-9.42,0-18-1.7-22.32-4.44-2-1.24-3-2.62-3-4.11,0-4.79,11.12-8.54,25.31-8.54S234,100.6,234,105.39c0,1.49-1,2.87-3,4.11C226.7,112.24,218.15,113.94,208.73,113.94Zm0-16.09c-14.54,0-24.31,3.9-24.31,7.54,0,1.4,1.37,2.55,2.53,3.26,4.19,2.65,12.54,4.29,21.78,4.29s17.59-1.64,21.79-4.29c1.15-.72,2.52-1.86,2.52-3.26C233,101.75,223.27,97.85,208.73,97.85Z" fill="#231f20"></path><ellipse cx="208.73" cy="109.08" rx="22.05" ry="4.36" fill="#68e1fd"></ellipse><path d="M208.73,113.94c-9.42,0-18-1.7-22.32-4.44a.5.5,0,0,1-.23-.42.52.52,0,0,1,.23-.43c4.35-2.73,12.9-4.43,22.32-4.43s18,1.7,22.32,4.43a.5.5,0,0,1,.23.43.48.48,0,0,1-.23.42C226.7,112.24,218.15,113.94,208.73,113.94Zm-21.06-4.86c4.39,2.39,12.32,3.86,21.06,3.86s16.68-1.47,21.06-3.86c-4.38-2.4-12.32-3.86-21.06-3.86S192.06,106.68,187.67,109.08Z" fill="#231f20"></path><path d="M226.53,115.79s6.09.15,9,.15,7.87-5,6.8-6.09-8.64-.87-8.64-.87v1.9s5.42-.16,5.57.46-2.51,2.25-3.58,2.25-6.39-.16-6.39-.16Z" fill="#231f20"></path><path d="M235.54,116.44c-2.89,0-9-.15-9-.15a.51.51,0,0,1-.46-.34.49.49,0,0,1,.15-.54l2.76-2.36a.5.5,0,0,1,.34-.12c.05,0,5.33.16,6.38.16a6.4,6.4,0,0,0,2.93-1.54,29.51,29.51,0,0,0-4.91-.17.58.58,0,0,1-.36-.15.47.47,0,0,1-.15-.35V109a.5.5,0,0,1,.48-.5c1.83,0,7.88-.12,9,1,.25.24.46.7.12,1.52C242,113,238.08,116.44,235.54,116.44Zm-7.68-1.12c1.95,0,5.62.12,7.68.12s5-2.55,6.07-4.27c.45-.72.37-1,.37-1-.54-.54-4.36-.79-7.78-.73v.89c5.32-.11,5.47.51,5.56.85a1,1,0,0,1-.25.83,6.79,6.79,0,0,1-3.82,2c-1,0-5.24-.12-6.22-.15Z" fill="#231f20"></path><path d="M264.59,101.46c-1.23,10.44-1.82,17.34-1.84,34,0,0-16.27-18.83-17.09-22.51s-5.46-9.35-9.41-8.59-9.41,11.87-6.54,13.91a39.8,39.8,0,0,1,6.13,6.14s17.29,41.23,29.57,42.05,16.88-47.88,17.8-60.47-3.89-17.59-8.9-18.1S265.82,91,264.59,101.46Z" fill="#fff"></path><path d="M265.7,167h-.33c-12.35-.82-29-39.76-30-42.33a38.68,38.68,0,0,0-6-6c-1-.72-1.29-2.23-.83-4.38.84-3.84,4.41-10,7.61-10.59,4.22-.81,9.2,5,10.1,9,.6,2.7,10.87,15.13,15.92,21A239.19,239.19,0,0,1,264,101.39c1.19-10.09,4.57-14.72,10.37-14.12,7.91.8,10.06,10.21,9.43,18.74C283.05,116.26,278.67,167,265.7,167ZM237,104.85a3.36,3.36,0,0,0-.63.06c-2.46.47-5.84,5.86-6.68,9.69-.35,1.59-.22,2.75.36,3.16a39.85,39.85,0,0,1,6.26,6.25.64.64,0,0,1,.08.14,228.26,228.26,0,0,0,10.15,20.66c7.56,13.44,14.1,20.7,18.91,21S274.6,157.6,278,141.1a305.48,305.48,0,0,0,4.63-35.18c1.12-15.31-6.12-17.24-8.37-17.47-1.84-.19-7.44-.77-9.07,13.08-1.23,10.5-1.82,17.26-1.84,33.9a.57.57,0,0,1-.38.55.6.6,0,0,1-.66-.16c-1.67-1.94-16.39-19-17.21-22.77C244.34,109.71,240.41,104.85,237,104.85Z" fill="#231f20"></path><path d="M239.32,141.26l18.42-13.5s-12.48-11.26-12.08-14.84-5.42-16.16-10.94-13.4-9.93,10.43-8.19,16.27,8.19,6.75,9.11,12.27A94.93,94.93,0,0,0,239.32,141.26Z" fill="#d1d3d4"></path><path d="M239.32,141.85l-.17,0a.62.62,0,0,1-.39-.37,98,98,0,0,1-3.71-13.3c-.43-2.61-2.24-4.15-4.16-5.77s-4-3.41-4.92-6.43c-1.89-6.34,2.92-14.19,8.48-17a4.66,4.66,0,0,1,4.94.63c3.93,2.75,7.2,10.45,6.86,13.37-.27,2.39,7.15,10.05,11.88,14.33a.57.57,0,0,1,.2.47.59.59,0,0,1-.24.44l-18.42,13.51A.61.61,0,0,1,239.32,141.85Zm-3-42.13a3,3,0,0,0-1.35.33c-5,2.52-9.58,9.87-7.88,15.57.8,2.68,2.71,4.3,4.55,5.86,2,1.7,4.07,3.45,4.57,6.48a90.43,90.43,0,0,0,3.4,12.35l17.18-12.6c-2.61-2.41-12.12-11.4-11.72-14.86.26-2.32-2.58-9.61-6.37-12.26A4.16,4.16,0,0,0,236.33,99.72Z" fill="#231f20"></path><path d="M329.62,256.14h4.69s13.24-54.9,11.83-59.4-30.69-18-32.94-14.93-6.76,49.56-6.76,49.56Z" fill="#fff"></path><path d="M334.31,256.65h-4.69a.52.52,0,0,1-.37-.16l-23.18-24.78a.52.52,0,0,1-.13-.39c.46-4.77,4.58-46.68,6.85-49.8.48-.66,1.56-.82,3.42-.52,7.6,1.25,29.06,11.27,30.41,15.59,1.43,4.58-11.28,57.42-11.82,59.67A.51.51,0,0,1,334.31,256.65Zm-4.47-1h4.08c3.73-15.52,12.85-55.21,11.74-58.76-1.05-3.36-21.25-13.52-29.61-14.9-2-.33-2.39,0-2.45.12-1.59,2.18-4.83,30.46-6.64,49.08Z" fill="#231f20"></path><path d="M71.9,255.86S58.38,177,59,173.65s40-23.37,45.33-19.43.28,85.88.28,85.88Z" fill="#fff"></path><path d="M71.9,256.36a.59.59,0,0,1-.23-.05.48.48,0,0,1-.26-.36c-.56-3.22-13.53-79-13-82.38.43-2.55,16.42-11.15,28.73-16.14,9.54-3.87,15.39-5.09,17.4-3.61,5.41,4,1,77.89.48,86.31a.5.5,0,0,1-.28.42L72.12,256.31A.44.44,0,0,1,71.9,256.36ZM102.1,154.2c-2.71,0-7.66,1.38-14.18,4-14,5.64-28.2,13.92-28.48,15.52-.45,2.68,9,59,12.84,81.39l31.8-15.35c2-32.83,3.65-82.38-.1-85.15A3.29,3.29,0,0,0,102.1,154.2Z" fill="#231f20"></path><polygon points="92.73 241.5 71.9 255.86 110.19 255.86 121.17 240.94 92.73 241.5" fill="#fff"></polygon><path d="M110.19,256.36H71.9a.5.5,0,0,1-.29-.91l20.84-14.36a.66.66,0,0,1,.27-.09l28.44-.56a.54.54,0,0,1,.46.27.51.51,0,0,1-.05.53l-11,14.92A.48.48,0,0,1,110.19,256.36Zm-36.69-1h36.44l10.23-13.9L92.89,242Z" fill="#231f20"></path><path d="M285.7,168.86s-4.13,10.14-2.82,11.26,4.69-.37,4.69-.37" fill="#fff"></path><path d="M284.32,181a2.62,2.62,0,0,1-1.76-.54c-1.44-1.22,1.39-8.68,2.67-11.83a.5.5,0,0,1,.93.38c-2.12,5.19-3.47,10.09-3,10.7.78.66,3,.07,4.16-.46a.5.5,0,0,1,.66.26.51.51,0,0,1-.25.66A10,10,0,0,1,284.32,181Z" fill="#231f20"></path><path d="M289.16,152.9S282,175.06,287.38,184s12.48,3.57,12.48,3.57l-.51,9.42,11.21-.76s3.57-22.68,4.34-32.1S293.49,147,289.16,152.9Z" fill="#fff"></path><path d="M299.35,197.47a.52.52,0,0,1-.35-.14.49.49,0,0,1-.14-.38l.45-8.47a8.87,8.87,0,0,1-5.83,1c-2.54-.5-4.73-2.27-6.53-5.26-5.4-9,1.44-30.58,1.74-31.5a.61.61,0,0,1,.07-.14c2.42-3.28,9.22-2.6,14.89-.48s12.19,6.57,11.74,12c-.75,9.33-4.3,31.91-4.33,32.14a.51.51,0,0,1-.46.42l-11.21.76Zm.51-10.42a.6.6,0,0,1,.24,0,.52.52,0,0,1,.26.47l-.48,8.87,10.25-.7c.48-3.06,3.57-23.05,4.27-31.67.37-4.59-5.31-8.84-11.1-11-6.13-2.3-11.86-2.27-13.69.07-.45,1.47-6.81,22.24-1.8,30.59,1.64,2.74,3.62,4.36,5.86,4.8a8.2,8.2,0,0,0,5.89-1.37A.49.49,0,0,1,299.86,187.05Z" fill="#231f20"></path><path d="M314.23,192.14s-11.83-4.88-18.21.56-9.76,15.39-10.89,25,3.57,37,3.57,37l41.67,1.5S330.37,195,314.23,192.14Z" fill="#68e1fd"></path><polyline points="296.21 246.01 329.62 246.01 329.62 256.14 285.32 256.14 296.21 246.01" fill="#231f20"></polyline><path d="M329.62,256.65h-44.3a.51.51,0,0,1-.34-.87l10.89-10.14a.51.51,0,0,1,.34-.13h33.41a.5.5,0,0,1,.5.5v10.14A.5.5,0,0,1,329.62,256.65Zm-43-1h42.53v-9.14H296.4Z" fill="#231f20"></path><path d="M301.06,166.12a3,3,0,0,1,1,.59,3.17,3.17,0,0,1,.72,1.6c2.29,9.89,2.67,19.77,6.2,29.47a2.07,2.07,0,0,0,2.86,1.59,56.43,56.43,0,0,0,20.29-7.4,61.7,61.7,0,0,1-9.51-24.24c-.68-4.22-1-8.67-3.18-12.32-2.41-4-6.79-6.42-11.29-7.53A21.69,21.69,0,0,0,294,149.05a34.92,34.92,0,0,0-6.46,3.57,2.06,2.06,0,0,0-.78,2.24,3,3,0,0,0,.69.94c3.86,4,7.9,8.19,13.13,10.14Z" fill="#fff"></path><path d="M310.91,200a2.39,2.39,0,0,1-1.4-.4,3.21,3.21,0,0,1-1-1.6c-2.23-6.12-3.22-12.4-4.19-18.48-.58-3.62-1.17-7.37-2-11.06a2.89,2.89,0,0,0-.59-1.36,2.45,2.45,0,0,0-.81-.47l-.46-.18c-5.45-2-9.63-6.4-13.32-10.27a3.4,3.4,0,0,1-.8-1.1,2.55,2.55,0,0,1,.94-2.81,34,34,0,0,1,6.42-3.56l.14-.07a22.27,22.27,0,0,1,14.45-1.21c5.23,1.29,9.35,4.05,11.59,7.76,1.89,3.11,2.42,6.77,2.93,10.32.1.73.21,1.45.32,2.18a61.37,61.37,0,0,0,9.44,24,.54.54,0,0,1,.07.39.5.5,0,0,1-.23.32,57.3,57.3,0,0,1-20.47,7.46A6.26,6.26,0,0,1,310.91,200Zm-8.22-52.24a20.05,20.05,0,0,0-8.46,1.79l-.15.07a33.41,33.41,0,0,0-6.22,3.43,1.58,1.58,0,0,0-.62,1.67,2.56,2.56,0,0,0,.58.77c3.62,3.79,7.72,8.08,12.94,10l.49.18h0a3.36,3.36,0,0,1,1.15.7,3.69,3.69,0,0,1,.85,1.84c.86,3.72,1.46,7.48,2,11.13,1,6,1.95,12.25,4.14,18.28a1.61,1.61,0,0,0,2.32,1.27,56.65,56.65,0,0,0,19.66-7.07,62.25,62.25,0,0,1-9.3-24c-.12-.73-.23-1.47-.33-2.2-.5-3.44-1-7-2.79-10-2.11-3.48-6-6.07-11-7.3A22.37,22.37,0,0,0,302.69,147.72Z" fill="#231f20"></path><path d="M300.22,173.53a3.52,3.52,0,0,1,3.43-3.67,4.53,4.53,0,0,1,4.16,3.24,6.45,6.45,0,0,1-1,5.39c-1,1.45-3.39,4-5.37,3.38" fill="#fff"></path><path d="M302.11,182.47a2.71,2.71,0,0,1-.79-.12.5.5,0,0,1-.32-.63.49.49,0,0,1,.62-.32c1.62.5,3.79-1.69,4.8-3.19a5.92,5.92,0,0,0,.91-5,4.05,4.05,0,0,0-3.63-2.89h-.05a3.1,3.1,0,0,0-2.25,1.1,2.57,2.57,0,0,0-.68,2,.5.5,0,0,1-1,.12,3.55,3.55,0,0,1,.92-2.79,4.17,4.17,0,0,1,3-1.44,5,5,0,0,1,4.65,3.6,7,7,0,0,1-1,5.81C306.32,180.15,304.19,182.47,302.11,182.47Z" fill="#231f20"></path><path d="M291.54,184.28a4.78,4.78,0,0,1-1.34-.19,3.07,3.07,0,0,1-2-1.37.5.5,0,0,1,.95-.33,3,3,0,0,0,1.67.83,4.27,4.27,0,0,0,3.55-1,.5.5,0,0,1,.63.77A5.39,5.39,0,0,1,291.54,184.28Z" fill="#231f20"></path><ellipse cx="290.11" cy="167.74" rx="0.84" ry="1.88" fill="#231f20"></ellipse><path d="M78.47,233.24S78.09,243.38,83,249s51.06.75,51.06.75l-3.38-25.9Z" fill="#231f20"></path><path d="M100.92,252.22c-8.81,0-16.43-.69-18.32-2.88-5-5.72-4.65-15.69-4.63-16.11a.5.5,0,0,1,.41-.48l52.18-9.38a.51.51,0,0,1,.59.42l3.38,25.91a.54.54,0,0,1-.11.37.46.46,0,0,1-.34.19C132.91,250.38,115.31,252.22,100.92,252.22ZM79,233.66c0,1.92.24,10.23,4.39,15,3.81,4.4,37,2,50.12.64l-3.25-24.88Z" fill="#231f20"></path><path d="M98.55,129.44a35.59,35.59,0,0,0-22.71,18.3c-5.11,10.23-.75,57.72,2.63,85.5l54.53,2.5s3-67.81,2.29-79-2.37-21-4.07-22.72S107,126.06,98.55,129.44Z" fill="#68e1fd"></path><path d="M131.22,134c2.06,1.23,12.76,44.59,21.77,54l-11.08,17.08s-9-24.78-13.14-39.42,0-31.91,0-31.91" fill="#68e1fd"></path><path d="M134.59,201.46a.51.51,0,0,1-.5-.47l-2.67-50a.49.49,0,0,1,.47-.52.5.5,0,0,1,.53.47l2.67,50a.5.5,0,0,1-.47.53Z" fill="#231f20"></path><polygon points="161.79 172.5 266.37 172.5 299.8 256.21 102.71 256.21 161.79 172.5" fill="#fff"></polygon><path d="M299.8,256.72H102.71a.52.52,0,0,1-.45-.27.51.51,0,0,1,0-.52l59.09-83.72a.49.49,0,0,1,.4-.21H266.37a.5.5,0,0,1,.46.31L300.26,256a.52.52,0,0,1-.05.47A.52.52,0,0,1,299.8,256.72Zm-196.13-1H299.06L266,173h-104Z" fill="#231f20"></path><ellipse cx="199.52" cy="213.54" rx="30.15" ry="14.36" fill="#fff"></ellipse><path d="M199.52,228.4c-16.9,0-30.65-6.67-30.65-14.86s13.75-14.86,30.65-14.86,30.65,6.66,30.65,14.86S216.42,228.4,199.52,228.4Zm0-28.72c-16.35,0-29.65,6.21-29.65,13.86s13.3,13.86,29.65,13.86,29.65-6.22,29.65-13.86S215.87,199.68,199.52,199.68Z" fill="#231f20"></path><ellipse cx="257.71" cy="230.99" rx="24.97" ry="10.27" fill="#fff"></ellipse><path d="M257.71,241.76c-14.28,0-25.47-4.73-25.47-10.77s11.19-10.78,25.47-10.78,25.47,4.73,25.47,10.78S272,241.76,257.71,241.76Zm0-20.55c-13.26,0-24.47,4.48-24.47,9.78s11.21,9.77,24.47,9.77,24.47-4.48,24.47-9.77S271,221.21,257.71,221.21Z" fill="#231f20"></path><path d="M264.11,219.18c-2.17-.25-4.62,0-6.12,1.5a5.68,5.68,0,0,0-7.23,1.21c-.4.53-.7,1.13-1.12,1.64a25.77,25.77,0,0,1-2.6,2.27,3,3,0,0,0-1.08,3c.11.3.3.62.15.9s-.3.27-.43.43-.11.45.09.48c1.43.17,3.28,1.53,4.69,2a34.14,34.14,0,0,0,5,1.3,36.24,36.24,0,0,0,10.55.35c2.59-.3,7.67-.75,9.46-2.82s-.55-5.23-1.73-6.94A13.24,13.24,0,0,0,264.11,219.18Z" fill="#fff"></path><path d="M261.87,235a35.73,35.73,0,0,1-11.57-1.9,14.93,14.93,0,0,1-1.93-.91,9.18,9.18,0,0,0-2.66-1.09.66.66,0,0,1-.55-.43.86.86,0,0,1,.14-.86,1.2,1.2,0,0,1,.26-.24,1.11,1.11,0,0,0,.11-.11,2,2,0,0,0-.11-.31l-.07-.17a3.48,3.48,0,0,1,1.21-3.56c.35-.33.73-.62,1.1-.91a8.33,8.33,0,0,0,1.45-1.3,7.64,7.64,0,0,0,.57-.83c.17-.27.35-.54.54-.8a6.2,6.2,0,0,1,7.56-1.53c1.76-1.52,4.34-1.6,6.24-1.37h0a13.64,13.64,0,0,1,10,5.54c1.3,1.9,3.63,5.32,1.69,7.56s-6.49,2.61-9.28,2.93l-.5.05A36.13,36.13,0,0,1,261.87,235Zm-15.53-4.79a12.81,12.81,0,0,1,2.5,1.1,13.17,13.17,0,0,0,1.78.84,33.76,33.76,0,0,0,4.89,1.27,35.29,35.29,0,0,0,10.41.35l.5-.06c2.47-.28,7.08-.79,8.63-2.59s-.61-4.66-1.72-6.27a12.68,12.68,0,0,0-9.28-5.18h0c-1.47-.17-4.16-.22-5.7,1.35a.53.53,0,0,1-.63.07,5.13,5.13,0,0,0-6.56,1.1,8.31,8.31,0,0,0-.49.72,11,11,0,0,1-.64.93,8.92,8.92,0,0,1-1.62,1.46,12.75,12.75,0,0,0-1,.85,2.52,2.52,0,0,0-1,2.48l0,.13a1.27,1.27,0,0,1,.07,1.17A.89.89,0,0,1,246.34,230.22Z" fill="#231f20"></path><path d="M252.65,227.43a8.14,8.14,0,0,0-7.24.56,3.9,3.9,0,0,1-1.26.62,3.1,3.1,0,0,1-1.05,0l-4.52-.7a2.42,2.42,0,0,0-1.7-1.67c-.83-.14-1.77.6-1.59,1.41a2.35,2.35,0,0,1,.13.57c0,.64-.95.67-1.51,1a1.33,1.33,0,0,0-.21,2.1c.67.56,1.66.28,2.53.18,2.42-.27,4.71,1,6.79,2.28l1.81,1.09c2.26,1.36,4.62,2.75,7.24,3,2.15.18,7.09-1.4,6.27-4.44a20.06,20.06,0,0,0-2.2-3.08A8.09,8.09,0,0,0,252.65,227.43Z" fill="#fff"></path><path d="M252.41,238.28H252c-2.79-.23-5.27-1.72-7.46-3l-1.81-1.09c-2.25-1.36-4.29-2.46-6.47-2.21l-.43.06a3,3,0,0,1-2.48-.35,1.75,1.75,0,0,1-.6-1.54,1.77,1.77,0,0,1,.89-1.39,4.18,4.18,0,0,1,.65-.25c.23-.08.59-.2.6-.3a1.15,1.15,0,0,0,0-.2,2.17,2.17,0,0,1-.07-.24,1.56,1.56,0,0,1,.44-1.42,2,2,0,0,1,1.72-.59,2.81,2.81,0,0,1,2,1.71l4.24.65a2.65,2.65,0,0,0,.88.05,3,3,0,0,0,.89-.43l.2-.12a8.66,8.66,0,0,1,7.69-.61h0a8.69,8.69,0,0,1,3.71,3c.14.2.38.49.64.82a9.1,9.1,0,0,1,1.63,2.41,2.93,2.93,0,0,1-.63,2.72C256.86,237.52,254.09,238.28,252.41,238.28Zm-15.52-7.38c2.42,0,4.69,1.36,6.39,2.38l1.81,1.09c2.09,1.26,4.46,2.69,7,2.9a7.39,7.39,0,0,0,5.31-2,1.91,1.91,0,0,0,.44-1.82,11.57,11.57,0,0,0-1.45-2.05c-.28-.35-.53-.66-.67-.87a7.61,7.61,0,0,0-3.28-2.65h0a7.64,7.64,0,0,0-6.79.53l-.19.12a2.83,2.83,0,0,1-2.46.52l-4.52-.69a.51.51,0,0,1-.39-.33,1.93,1.93,0,0,0-1.32-1.35,1,1,0,0,0-.83.3.6.6,0,0,0-.18.52c0,.05,0,.09,0,.14a1.52,1.52,0,0,1,.1.56c0,.79-.8,1-1.29,1.2a3.12,3.12,0,0,0-.49.18.85.85,0,0,0-.13,1.28,2.29,2.29,0,0,0,1.71.13c.15,0,.3-.05.45-.06A5.79,5.79,0,0,1,236.89,230.9Z" fill="#231f20"></path><path d="M267.45,225.29a.54.54,0,0,1-.25-.06L264,223.64a.55.55,0,0,1-.25-.74.56.56,0,0,1,.74-.25l3.17,1.59a.54.54,0,0,1,.25.74A.56.56,0,0,1,267.45,225.29Z" fill="#d1d3d4"></path><path d="M261.94,226.25h-.09l-3.3-.53a.56.56,0,0,1-.46-.64.55.55,0,0,1,.63-.45l3.31.53a.55.55,0,0,1-.09,1.09Z" fill="#d1d3d4"></path><path d="M263.92,229.29a.55.55,0,0,1,0-1.1l4.09-.27a.58.58,0,0,1,.59.52.56.56,0,0,1-.52.59l-4.09.26Z" fill="#d1d3d4"></path><path d="M242.46,228.31l.47,1.11a1.43,1.43,0,0,1-1.35.54,1.72,1.72,0,0,1-.52,2.6" fill="#fff"></path><path d="M241.06,233.06a.5.5,0,0,1-.21-1,1.08,1.08,0,0,0,.59-.82,1.11,1.11,0,0,0-.23-1,.52.52,0,0,1-.07-.58.5.5,0,0,1,.52-.25,1,1,0,0,0,.68-.17l-.34-.79a.52.52,0,0,1,.27-.66.49.49,0,0,1,.65.27l.47,1.1a.5.5,0,0,1-.06.5,1.93,1.93,0,0,1-1,.67,2.22,2.22,0,0,1,0,1.09,2.13,2.13,0,0,1-1.15,1.53A.54.54,0,0,1,241.06,233.06Z" fill="#231f20"></path><ellipse cx="236.17" cy="182.24" rx="26.61" ry="10.95" fill="#fff"></ellipse><path d="M236.17,193.68c-15.21,0-27.11-5-27.11-11.44s11.9-11.45,27.11-11.45,27.1,5,27.1,11.45S251.37,193.68,236.17,193.68Zm0-21.89c-14.4,0-26.11,4.69-26.11,10.45s11.71,10.44,26.11,10.44,26.1-4.68,26.1-10.44S250.56,171.79,236.17,171.79Z" fill="#231f20"></path><path d="M243,169.66c-2.31-.27-4.92,0-6.52,1.59a6,6,0,0,0-7.7,1.3c-.43.56-.75,1.2-1.19,1.74a27.9,27.9,0,0,1-2.77,2.42,3.17,3.17,0,0,0-1.16,3.21c.12.31.32.66.16,1s-.31.28-.45.45-.12.49.1.51c1.51.19,3.49,1.64,5,2.15a36.71,36.71,0,0,0,5.29,1.38,38.15,38.15,0,0,0,11.24.37c2.76-.32,8.17-.8,10.07-3s-.58-5.57-1.84-7.4A14.1,14.1,0,0,0,243,169.66Z" fill="#fff"></path><path d="M240.59,186.49a38.83,38.83,0,0,1-7-.63,37.21,37.21,0,0,1-5.35-1.4,13.22,13.22,0,0,1-2.05-1,9.83,9.83,0,0,0-2.85-1.16.7.7,0,0,1-.56-.44A.9.9,0,0,1,223,181a3.2,3.2,0,0,1,.27-.25.81.81,0,0,0,.13-.12,1.14,1.14,0,0,0-.11-.37l-.07-.17c-.53-1.39.31-2.85,1.27-3.76.38-.35.78-.66,1.17-1a6.47,6.47,0,0,0,2.16-2.27c.18-.29.37-.58.58-.86a6.57,6.57,0,0,1,8-1.61c1.87-1.63,4.62-1.7,6.65-1.47h0a14.5,14.5,0,0,1,10.58,5.9c1.38,2,3.86,5.64,1.8,8-1.92,2.21-6.89,2.77-9.87,3.11l-.53.06A38.57,38.57,0,0,1,240.59,186.49ZM224,181.44a12.6,12.6,0,0,1,2.71,1.18,15.83,15.83,0,0,0,1.91.9,38,38,0,0,0,5.21,1.36,37.57,37.57,0,0,0,11.1.36l.53-.06c2.64-.29,7.56-.85,9.23-2.76s-.65-5-1.83-6.72a13.52,13.52,0,0,0-9.92-5.54h0c-1.57-.18-4.44-.24-6.1,1.44a.5.5,0,0,1-.63.07,5.52,5.52,0,0,0-7,1.18c-.19.25-.36.52-.52.78a10.15,10.15,0,0,1-.68,1,10,10,0,0,1-1.71,1.55c-.4.31-.76.59-1.1.91a2.7,2.7,0,0,0-1,2.67l.06.15a1.38,1.38,0,0,1,.08,1.22A1.54,1.54,0,0,1,224,181.44Z" fill="#231f20"></path><path d="M246.54,176.12a.53.53,0,0,1-.25-.05l-3.38-1.69a.56.56,0,0,1-.25-.74.55.55,0,0,1,.74-.25l3.38,1.69a.54.54,0,0,1,.25.74A.55.55,0,0,1,246.54,176.12Z" fill="#d1d3d4"></path><path d="M240.67,177.16h-.09l-3.52-.56a.57.57,0,0,1-.46-.64.56.56,0,0,1,.64-.45l3.52.56a.56.56,0,0,1,.46.63A.57.57,0,0,1,240.67,177.16Z" fill="#d1d3d4"></path><path d="M242.78,180.4a.56.56,0,0,1,0-1.11l4.36-.28a.57.57,0,0,1,.59.51.55.55,0,0,1-.52.59l-4.36.28Z" fill="#d1d3d4"></path><path d="M235.67,187.09s-.63-3.45,3.38-3.31c3.6.13,6.48,2,8.87,2,2,0,17.86-6.81,18.33-6.43s1.31,1.5.93,1.87A187.94,187.94,0,0,1,248.51,188C243.81,189.18,235.48,189.44,235.67,187.09Z" fill="#fff"></path><path d="M241,189.38c-2.3,0-4.32-.3-5.23-1.07a1.46,1.46,0,0,1-.57-1.19,3.61,3.61,0,0,1,.71-2.73,3.8,3.8,0,0,1,3.19-1.11,18.8,18.8,0,0,1,5.34,1.17,12.24,12.24,0,0,0,3.51.8c1,0,6.56-2.15,10.62-3.73,7.38-2.86,7.64-2.88,8-2.58a3.46,3.46,0,0,1,1.22,1.95.87.87,0,0,1-.24.67c-.56.55-14.73,5.8-18.91,6.88A32.77,32.77,0,0,1,241,189.38Zm-2.15-5.1a2.78,2.78,0,0,0-2.18.76,2.6,2.6,0,0,0-.47,2v.13a.46.46,0,0,0,.21.42c1.47,1.23,7.94,1,12-.07,4.6-1.2,16.94-5.91,18.39-6.61a3.15,3.15,0,0,0-.71-1c-.81.16-4.18,1.47-7.16,2.63-5.92,2.29-9.88,3.79-11,3.79a13,13,0,0,1-3.82-.85,18.49,18.49,0,0,0-5.07-1.12Z" fill="#231f20"></path><path d="M231.68,180.3c-1.46-2-4-3.29-6.36-2.66a17.47,17.47,0,0,1-2.3.72,8.55,8.55,0,0,1-3-.46,7.67,7.67,0,0,0-6.88,1.3,2.37,2.37,0,0,0-.92,2.22,2.87,2.87,0,0,0,.68,1.08,23.4,23.4,0,0,0,14.5,7.57,8.39,8.39,0,0,0,4.08-.3C235.61,188.15,233.63,182.92,231.68,180.3Z" fill="#fff"></path><path d="M229,190.68a14.36,14.36,0,0,1-1.68-.11,23.93,23.93,0,0,1-14.81-7.74,3,3,0,0,1-.79-1.28,2.79,2.79,0,0,1,1.07-2.72,8.1,8.1,0,0,1,7.33-1.42l.6.16a6,6,0,0,0,2.2.3,6.52,6.52,0,0,0,1.27-.38c.32-.12.64-.24,1-.33,2.76-.74,5.44.89,6.89,2.84h0c1.55,2.08,2.81,5.22,2.15,7.55a4,4,0,0,1-2.54,2.68A7.08,7.08,0,0,1,229,190.68Zm-11.29-12.56a6.25,6.25,0,0,0-4.25,1.46,1.92,1.92,0,0,0-.78,1.71,2.41,2.41,0,0,0,.57.88,23,23,0,0,0,14.19,7.41,8.11,8.11,0,0,0,3.84-.28,3,3,0,0,0,2-2c.56-2-.63-4.86-2-6.69-1.2-1.61-3.54-3.08-5.83-2.47a8.75,8.75,0,0,0-.86.3,6.76,6.76,0,0,1-1.51.44,6.53,6.53,0,0,1-2.57-.33l-.58-.15A9.89,9.89,0,0,0,217.75,178.12Z" fill="#231f20"></path><path d="M221.94,178.72c.32.42.88.56,1.34.84,1.43.89,1.55,3,2.85,4.11" fill="#fff"></path><path d="M226.13,184.17a.46.46,0,0,1-.32-.11,5.92,5.92,0,0,1-1.43-2.15A4.23,4.23,0,0,0,223,180a4.13,4.13,0,0,0-.42-.22,2.66,2.66,0,0,1-1.05-.75.5.5,0,1,1,.79-.6,1.88,1.88,0,0,0,.7.45,5,5,0,0,1,.51.27,5,5,0,0,1,1.74,2.35,5.3,5.3,0,0,0,1.17,1.8.51.51,0,0,1,.06.71A.52.52,0,0,1,226.13,184.17Z" fill="#231f20"></path><path d="M96,122.05a9.34,9.34,0,0,1-5-.43,2.92,2.92,0,0,1-1.42-1,1.29,1.29,0,0,1,0-1.59c.68-.68,2.12-.2,2.56-1-6.34-7-8.25-20.8-3.46-29,1.77-3,4.92-5.5,8.43-5.45a6.36,6.36,0,0,1,1.58-2.69c3.59-3.91,9.36-4.91,14.67-4.94s10.75.63,15.85-.87a16.34,16.34,0,0,1,3.66-.91c3.84-.21,7,3.58,7.33,7.4s-1.29,7.53-3.13,10.9c-1.49,2.74-3.35,5.75-6.28,7.14s-6.63,1-9.23,3.22c-2.44,2.1-4.22,5.32-6.46,7.71a31.53,31.53,0,0,1-12.83,8.4c-1.83.61-2.3,1.52-3.9,2.32A9.08,9.08,0,0,1,96,122.05Z" fill="#fff"></path><path d="M94.27,122.71a9.73,9.73,0,0,1-3.43-.62A3.46,3.46,0,0,1,89.19,121a1.77,1.77,0,0,1,.08-2.23,2.53,2.53,0,0,1,1.54-.59,3.45,3.45,0,0,0,.68-.14c-6.35-7.4-7.9-21.18-3.2-29.23,1.57-2.7,4.61-5.57,8.48-5.69a7.34,7.34,0,0,1,1.59-2.54c3.11-3.38,8-5.05,15-5.1,1.31,0,2.63,0,3.94,0,3.94.1,8,.2,11.77-.9l.82-.26a12.14,12.14,0,0,1,3-.67h.34c4.06,0,7.14,4,7.51,7.87s-1.3,7.72-3.19,11.18c-1.62,3-3.54,6-6.5,7.36a17.07,17.07,0,0,1-3.94,1.14c-1.92.39-3.74.76-5.19,2a27.56,27.56,0,0,0-3.72,4.32,38.37,38.37,0,0,1-2.7,3.35,31.94,31.94,0,0,1-13,8.54,6.55,6.55,0,0,0-2.15,1.21,11.42,11.42,0,0,1-1.68,1.08,9.69,9.69,0,0,1-2.5.84h0A9.75,9.75,0,0,1,94.27,122.71Zm1.77-.66h0Zm1-38c-3,0-6,2-7.9,5.21-4.58,7.85-3,21.39,3.4,28.42a.5.5,0,0,1,.08.57,2,2,0,0,1-1.68.86,1.85,1.85,0,0,0-1,.3.78.78,0,0,0,0,.95,2.63,2.63,0,0,0,1.18.78,8.93,8.93,0,0,0,4.76.4h0a8.51,8.51,0,0,0,2.23-.76,9.21,9.21,0,0,0,1.53-1,7.65,7.65,0,0,1,2.44-1.36,30.82,30.82,0,0,0,12.62-8.28,37.05,37.05,0,0,0,2.63-3.26,27.45,27.45,0,0,1,3.87-4.47,11.74,11.74,0,0,1,5.64-2.23,16,16,0,0,0,3.71-1.07c2.71-1.29,4.51-4.09,6.06-6.93,1.8-3.32,3.42-6.9,3.07-10.61-.34-3.45-3.21-7.14-6.81-7a10.76,10.76,0,0,0-2.7.63l-.85.26c-3.92,1.15-8.06,1-12.07.94-1.31,0-2.61-.06-3.91,0-6.72,0-11.4,1.61-14.31,4.78a5.78,5.78,0,0,0-1.46,2.47.51.51,0,0,1-.5.38Z" fill="#231f20"></path><path d="M127.94,103.3s5.41,9.27,4.09,11.06-5.33.33-5.33.33" fill="#fff"></path><path d="M129.7,115.74a10.5,10.5,0,0,1-3.17-.58.5.5,0,1,1,.34-.94c1,.37,3.85,1.06,4.75-.16.7-.94-1.59-6.19-4.11-10.51a.5.5,0,0,1,.86-.5c1.31,2.24,5.47,9.7,4.06,11.61A3.26,3.26,0,0,1,129.7,115.74Z" fill="#231f20"></path><path d="M127.33,91.41c3.59,3.28,2.14,9.71,1.87,13.93q-.55,8.91-1.53,17.79c-.41,3.75-10.17,3.29-11.83,2.07l.21,12.5s-2.66,6.75-10.33,2.67-9.22-9.21-9.22-9.21L98.1,114s6.44.41,10.67-7S113.5,87.7,113.5,87.7,123.82,88.21,127.33,91.41Z" fill="#fff"></path><path d="M110.28,142.18a10.18,10.18,0,0,1-4.79-1.37c-7.76-4.13-9.41-9.29-9.47-9.5a.46.46,0,0,1,0-.2L97.6,114a.5.5,0,0,1,.53-.46c.25,0,6.19.28,10.21-6.8,4.13-7.27,4.66-18.92,4.66-19a.53.53,0,0,1,.17-.35.46.46,0,0,1,.36-.13c.43,0,10.54.55,14.14,3.84h0c3.17,2.9,2.65,8,2.24,12-.08.81-.16,1.58-.21,2.29-.37,5.93-.89,11.92-1.53,17.8a3.23,3.23,0,0,1-2.21,2.54c-2.69,1.18-7.45,1-9.6.27l.19,11.7a.58.58,0,0,1,0,.19,7.37,7.37,0,0,1-4,3.91A6.48,6.48,0,0,1,110.28,142.18ZM97,131.1c.25.67,2.12,5.2,9,8.83,2.36,1.26,4.45,1.57,6.21.93a6.41,6.41,0,0,0,3.38-3.26l-.21-12.39a.54.54,0,0,1,.27-.46.53.53,0,0,1,.53,0c1.08.8,6.55,1.27,9.42,0,1-.43,1.53-1,1.61-1.73.64-5.87,1.16-11.84,1.54-17.76,0-.72.12-1.5.2-2.32.4-3.86.88-8.66-1.92-11.21h0c-2.9-2.66-10.93-3.4-13-3.55-.15,2.38-1,12.3-4.77,19s-9,7.25-10.66,7.31Z" fill="#231f20"></path><path d="M127.77,118.69s-4.76,2.58-7-2.32" fill="#fff"></path><path d="M125,119.87a4.77,4.77,0,0,1-1.59-.26,5.18,5.18,0,0,1-3-3,.49.49,0,0,1,.25-.66.5.5,0,0,1,.66.25,4.29,4.29,0,0,0,2.45,2.51,5.42,5.42,0,0,0,3.8-.42.5.5,0,0,1,.48.88A6.89,6.89,0,0,1,125,119.87Z" fill="#231f20"></path><path d="M116.33,106.47a8.09,8.09,0,0,0-1.43-4.16,11.57,11.57,0,0,0-2-2.82,3.87,3.87,0,0,0-3.14-1.15,3.63,3.63,0,0,0-2.44,1.71,6.88,6.88,0,0,0-.9,2.9,12.76,12.76,0,0,0,5.25,11.64l-.31-.38" fill="#fff"></path><path d="M111.66,115.09a.52.52,0,0,1-.29-.09,13.36,13.36,0,0,1-5.46-12.1,7.31,7.31,0,0,1,1-3.12,4.09,4.09,0,0,1,2.78-1.94,4.39,4.39,0,0,1,3.57,1.28,12.09,12.09,0,0,1,2.09,2.94,8.5,8.5,0,0,1,1.5,4.43.47.47,0,0,1-.52.48.5.5,0,0,1-.48-.52,7.74,7.74,0,0,0-1.37-3.9,11,11,0,0,0-1.91-2.7,3.44,3.44,0,0,0-2.73-1,3.14,3.14,0,0,0-2.08,1.49,6.1,6.1,0,0,0-.83,2.69,12.33,12.33,0,0,0,4.42,10.7.54.54,0,0,1,.41.19l.31.37a.5.5,0,0,1,0,.66A.52.52,0,0,1,111.66,115.09Z" fill="#231f20"></path><path d="M115.84,125.2s-5-1.85-7.12-5.45c0,0-.17,9.06,7.43,12.11Z" fill="#231f20"></path><path d="M116.15,132.36l-.18,0c-7.84-3.14-7.76-12.49-7.75-12.59a.5.5,0,0,1,.92-.25c2,3.4,6.83,5.22,6.88,5.24a.49.49,0,0,1,.32.44l.31,6.67a.49.49,0,0,1-.21.43A.48.48,0,0,1,116.15,132.36Zm-6.8-10.92c.35,2.56,1.62,7.37,6.27,9.64l-.26-5.54A17.39,17.39,0,0,1,109.35,121.44Z" fill="#231f20"></path><ellipse cx="124.31" cy="101.07" rx="2.13" ry="0.84" transform="translate(10.3 213.64) rotate(-83.75)" fill="#231f20"></ellipse><path d="M96.11,157.32l2.23,43.16,49.2-5.61.66,18.44s-32,10.71-45.52,7-21.76-23.57-25.15-35.1S82.89,144.43,96.11,157.32Z" fill="#68e1fd"></path><path d="M110.36,200.78a2.67,2.67,0,0,1-1.2-.16c-1.56-1-22.52-46.16-26.7-55.19a.49.49,0,0,1,.24-.66.5.5,0,0,1,.67.24c9.87,21.32,25,53.5,26.38,54.81,1.51.54,23.44-2.93,36.9-5.26a.51.51,0,0,1,.58.41.51.51,0,0,1-.41.58C139.22,196.86,116,200.78,110.36,200.78Z" fill="#231f20"></path><path d="M110.56,221.67c-3.81,0-7-.54-9.09-1.9l-1.83-1.19c-9.25-6-18.8-12.15-22.89-38.1a.51.51,0,0,1,.42-.57.5.5,0,0,1,.57.42c4,25.5,13.38,31.56,22.44,37.41l1.84,1.2c9.35,6.14,45.65-6,46-6.1a.5.5,0,0,1,.63.31.5.5,0,0,1-.31.64C147.16,214.19,124.77,221.67,110.56,221.67Z" fill="#231f20"></path><path d="M176.66,200.77a8.91,8.91,0,0,1-5.65,1.88,10.74,10.74,0,0,1-6-1.88l-2.23-24.49h16.14Z" fill="#fff"></path><path d="M171,203.15a11.14,11.14,0,0,1-6.34-2,.49.49,0,0,1-.2-.35l-2.23-24.5a.52.52,0,0,1,.14-.39.51.51,0,0,1,.37-.16h16.14a.55.55,0,0,1,.38.16.56.56,0,0,1,.13.39l-2.23,24.5a.51.51,0,0,1-.17.33A9.38,9.38,0,0,1,171,203.15Zm-5.55-2.66a10.5,10.5,0,0,0,5.55,1.65,8.74,8.74,0,0,0,5.17-1.63l2.16-23.73h-15Zm11.2.28h0Z" fill="#231f20"></path><path d="M164.67,181.4,166,198.08s2.58,3.69,8.55.44l1.93-17.12s-1.9-1.58-5.88-1.4A12.53,12.53,0,0,0,164.67,181.4Z" fill="#d1d3d4"></path><ellipse cx="170.82" cy="176.28" rx="8.07" ry="2.35" fill="#fff"></ellipse><path d="M170.82,179.12c-4.26,0-8.57-1-8.57-2.84,0-3.74,17.14-3.74,17.14,0C179.39,178.14,175.08,179.12,170.82,179.12Zm0-4.69c-4.9,0-7.57,1.22-7.57,1.85s2.67,1.84,7.57,1.84,7.57-1.22,7.57-1.84S175.72,174.43,170.82,174.43Z" fill="#231f20"></path><path d="M199.38,188.85a8.93,8.93,0,0,1-5.66,1.88,10.74,10.74,0,0,1-6-1.88l-2.23-24.49H201.6Z" fill="#fff"></path><path d="M193.72,191.24a11.14,11.14,0,0,1-6.34-2,.52.52,0,0,1-.2-.35L185,164.4a.48.48,0,0,1,.13-.39.51.51,0,0,1,.37-.16H201.6a.53.53,0,0,1,.38.16.56.56,0,0,1,.13.39l-2.23,24.5a.52.52,0,0,1-.16.33A9.43,9.43,0,0,1,193.72,191.24Zm-5.55-2.67a10.5,10.5,0,0,0,5.55,1.65,8.67,8.67,0,0,0,5.17-1.63l2.16-23.73H186Zm11.21.28h0Z" fill="#231f20"></path><path d="M187.88,170.19l1.28,16.67s2.58,3.69,8.55.44l1.92-17.11s-1.9-1.58-5.87-1.41A12.6,12.6,0,0,0,187.88,170.19Z" fill="#d1d3d4"></path><ellipse cx="193.53" cy="164.36" rx="8.07" ry="2.35" fill="#fff"></ellipse><path d="M193.53,167.2c-4.26,0-8.57-1-8.57-2.84s4.31-2.85,8.57-2.85,8.57,1,8.57,2.85S197.79,167.2,193.53,167.2Zm0-4.69c-4.9,0-7.57,1.22-7.57,1.85s2.67,1.84,7.57,1.84,7.57-1.22,7.57-1.84S198.43,162.51,193.53,162.51Z" fill="#231f20"></path><path d="M150,198.33s6.76-5.82,7.7-7.51,5.07-7.69,5.07-7.69l1.31,3s9.95-5.63,11.64-3.94.75,8.82-.94,11.64S165,204,154.49,208.09Z" fill="#fff"></path><path d="M154.49,208.59a.49.49,0,0,1-.45-.29l-4.51-9.76a.51.51,0,0,1,.13-.59c1.86-1.6,6.85-6,7.58-7.37.94-1.69,4.93-7.49,5.1-7.74a.48.48,0,0,1,.46-.21.51.51,0,0,1,.41.3l1.09,2.49c2.85-1.58,10-5.29,11.75-3.59,2,2,.86,9.39-.86,12.25s-9.71,10.23-20.52,14.48A.57.57,0,0,1,154.49,208.59Zm-3.89-10.13,4.14,9c9.9-4,17.87-11,19.59-13.88s2.49-9.55,1-11c-.88-.88-6.41,1.41-11,4a.49.49,0,0,1-.41,0,.5.5,0,0,1-.3-.27l-.95-2.18c-1.13,1.66-3.81,5.62-4.53,6.92C157.24,192.64,152,197.24,150.6,198.46Z" fill="#231f20"></path><polygon points="147.54 195.86 153.36 194.48 155.05 210.25 148.2 213.31 147.54 195.86" fill="#231f20"></polygon><path d="M148.2,213.81a.5.5,0,0,1-.27-.07.49.49,0,0,1-.23-.41L147,195.88a.5.5,0,0,1,.38-.51l5.83-1.37a.44.44,0,0,1,.4.08.5.5,0,0,1,.21.35l1.69,15.77a.52.52,0,0,1-.29.51l-6.86,3.06A.51.51,0,0,1,148.2,213.81Zm-.15-17.56.62,16.31,5.85-2.62-1.59-14.84Z" fill="#231f20"></path><ellipse cx="161.59" cy="234.49" rx="26.61" ry="10.95" fill="#fff"></ellipse><path d="M161.59,245.94c-15.2,0-27.1-5-27.1-11.45S146.39,223,161.59,223s27.11,5,27.11,11.45S176.79,245.94,161.59,245.94Zm0-21.9c-14.39,0-26.1,4.69-26.1,10.45s11.71,10.45,26.1,10.45,26.11-4.69,26.11-10.45S176,224,161.59,224Z" fill="#231f20"></path><path d="M154.78,221.92c2.31-.27,4.92,0,6.52,1.59a6,6,0,0,1,7.7,1.29c.43.57.75,1.2,1.19,1.75A29.17,29.17,0,0,0,173,229a3.15,3.15,0,0,1,1.15,3.22c-.11.31-.31.66-.16.95s.32.29.46.46.12.48-.1.51c-1.52.19-3.49,1.63-5,2.15a35.42,35.42,0,0,1-5.29,1.37,38.15,38.15,0,0,1-11.24.38c-2.76-.32-8.17-.8-10.07-3s.58-5.57,1.84-7.4A14,14,0,0,1,154.78,221.92Z" fill="#fff"></path><path d="M157.16,238.75a38.84,38.84,0,0,1-4.43-.26l-.52-.06c-3-.33-8-.89-9.87-3.1-2.06-2.37.42-6,1.75-7.94a14.54,14.54,0,0,1,10.63-6h0c2-.24,4.78-.16,6.65,1.46a6.59,6.59,0,0,1,8,1.62,9.69,9.69,0,0,1,.57.85,8.51,8.51,0,0,0,.61.88,9.2,9.2,0,0,0,1.56,1.4c.39.3.79.62,1.17,1,1,.91,1.8,2.37,1.27,3.75l-.07.18a1.14,1.14,0,0,0-.11.37.81.81,0,0,0,.13.12,1.23,1.23,0,0,1,.26.25.88.88,0,0,1,.15.88.69.69,0,0,1-.57.44,10,10,0,0,0-2.84,1.17,15.38,15.38,0,0,1-2.05,1,38.34,38.34,0,0,1-5.36,1.4A38.75,38.75,0,0,1,157.16,238.75Zm-2.32-16.34a13.54,13.54,0,0,0-9.87,5.47c-1.23,1.8-3.43,5-1.88,6.79s6.58,2.47,9.23,2.77l.53.06a37.49,37.49,0,0,0,11.09-.37,35.09,35.09,0,0,0,5.22-1.36,13.27,13.27,0,0,0,1.91-.9,13.68,13.68,0,0,1,2.71-1.18,1.24,1.24,0,0,1-.27-.32,1.38,1.38,0,0,1,.08-1.22l.06-.15a2.7,2.7,0,0,0-1-2.67,14.19,14.19,0,0,0-1.09-.91,9.06,9.06,0,0,1-1.72-1.56,7.82,7.82,0,0,1-.68-1c-.17-.26-.33-.52-.52-.77a5.5,5.5,0,0,0-7-1.18.51.51,0,0,1-.63-.07c-1.66-1.69-4.53-1.63-6.1-1.45Z" fill="#231f20"></path><path d="M167,230.7a8.72,8.72,0,0,1,7.72.6A4,4,0,0,0,176,232a3.51,3.51,0,0,0,1.12,0l4.82-.74a2.58,2.58,0,0,1,1.82-1.79c.87-.15,1.88.64,1.69,1.51a2.18,2.18,0,0,0-.14.6c0,.68,1,.72,1.61,1a1.43,1.43,0,0,1,.23,2.25c-.73.59-1.78.3-2.71.19-2.57-.3-5,1.09-7.23,2.43l-1.93,1.16c-2.41,1.44-4.92,2.93-7.72,3.16-2.28.19-7.55-1.49-6.67-4.73.19-.71,1.83-2.56,2.33-3.28A8.71,8.71,0,0,1,167,230.7Z" fill="#fff"></path><path d="M167.24,242.23c-1.78,0-4.72-.81-6.13-2.5a3.1,3.1,0,0,1-.67-2.87,9.89,9.89,0,0,1,1.73-2.55c.28-.36.54-.67.68-.89a9.19,9.19,0,0,1,4-3.18h0a9.17,9.17,0,0,1,8.17.64l.2.12a2.94,2.94,0,0,0,1,.47,3.18,3.18,0,0,0,1-.05l4.53-.69a3,3,0,0,1,2.09-1.83,2.09,2.09,0,0,1,1.81.63A1.61,1.61,0,0,1,186,231a1.36,1.36,0,0,1-.07.25,1.31,1.31,0,0,0-.05.22c0,.12.29.23.66.35a5.36,5.36,0,0,1,.68.26,1.93,1.93,0,0,1,.31,3.08,3.22,3.22,0,0,1-2.62.36c-.15,0-.3-.05-.45-.06-2.33-.27-4.51.91-6.92,2.36L175.58,239c-2.33,1.4-5,3-7.94,3.23Zm-.06-11.07a8.2,8.2,0,0,0-3.51,2.84c-.15.22-.42.56-.72.93a11.83,11.83,0,0,0-1.54,2.19,2,2,0,0,0,.47,2c1.24,1.49,4.19,2.25,5.68,2.13,2.74-.23,5.27-1.75,7.5-3.09L177,237c2-1.19,4.69-2.83,7.55-2.5l.49.07a2.47,2.47,0,0,0,1.84-.15.92.92,0,0,0-.14-1.41,3.65,3.65,0,0,0-.53-.2c-.55-.18-1.31-.43-1.35-1.25a1.63,1.63,0,0,1,.1-.58.75.75,0,0,0,.05-.16.63.63,0,0,0-.21-.57,1.08,1.08,0,0,0-.91-.34,2.12,2.12,0,0,0-1.43,1.46.49.49,0,0,1-.39.33l-4.82.74a3,3,0,0,1-2.6-.56l-.19-.12a8.21,8.21,0,0,0-7.27-.57Z" fill="#231f20"></path><path d="M151.22,228.38a.55.55,0,0,1-.24-1l3.37-1.69a.57.57,0,0,1,.75.25.56.56,0,0,1-.25.74l-3.38,1.69A.54.54,0,0,1,151.22,228.38Z" fill="#d1d3d4"></path><path d="M157.09,229.41a.56.56,0,0,1-.55-.46.57.57,0,0,1,.46-.64l3.52-.56a.55.55,0,0,1,.63.46.55.55,0,0,1-.45.63l-3.52.57Z" fill="#d1d3d4"></path><path d="M155,232.65h0l-4.36-.28a.55.55,0,0,1-.52-.59.58.58,0,0,1,.59-.51l4.36.28a.55.55,0,0,1,0,1.1Z" fill="#d1d3d4"></path><path d="M160.14,240s1-1.6-2.54-2.07-8.82-.09-10.79-.46-14.83-6.29-15.3-5.92-1.31,1.5-.93,1.88a190.56,190.56,0,0,0,18.67,6.76C153.94,241.44,160.33,242.38,160.14,240Z" fill="#fff"></path><path d="M157.13,242a36.94,36.94,0,0,1-8-1.27c-4.18-1.09-18.35-6.33-18.91-6.89a.84.84,0,0,1-.24-.67,3.5,3.5,0,0,1,1.22-1.95c.39-.32.74-.28,8.22,2.87,3.1,1.3,6.61,2.78,7.49,2.94a31.5,31.5,0,0,0,4.39.19,54.74,54.74,0,0,1,6.37.28c1.65.22,2.62.69,3,1.46a2.87,2.87,0,0,1-.55,2.35A4.87,4.87,0,0,1,157.13,242ZM131,233.14c1.13.57,13.73,5.38,18.39,6.59,5,1.29,9.09,1.61,10.08.79a.48.48,0,0,0,.18-.45.57.57,0,0,1,.07-.31.42.42,0,0,0,0-.42c-.09-.19-.49-.66-2.19-.88a54.53,54.53,0,0,0-6.25-.27,32.25,32.25,0,0,1-4.57-.2,78.09,78.09,0,0,1-7.69-3c-2.9-1.22-6.48-2.72-7.33-2.9A3.09,3.09,0,0,0,131,233.14Z" fill="#231f20"></path><path d="M177.84,231.64l-.5,1.18a1.52,1.52,0,0,0,1.44.58,1.83,1.83,0,0,0,.56,2.77" fill="#fff"></path><path d="M179.34,236.67a.54.54,0,0,1-.21,0,2.21,2.21,0,0,1-1.21-1.61,2.47,2.47,0,0,1,.05-1.18,2,2,0,0,1-1-.71.51.51,0,0,1-.06-.49l.5-1.18a.5.5,0,1,1,.92.39l-.37.87a1.07,1.07,0,0,0,.77.2.48.48,0,0,1,.52.25.52.52,0,0,1-.07.58,1.33,1.33,0,0,0,.4,2,.49.49,0,0,1,.24.66A.49.49,0,0,1,179.34,236.67Z" fill="#231f20"></path><path d="M189.87,204.27a10.18,10.18,0,0,1,3.94-4c2.82-1.62,7.68-2.75,9.37-1.76s-1.27,5.49-1.27,5.49S190.79,203.63,189.87,204.27Z" fill="#fff"></path><path d="M189.87,204.77a.52.52,0,0,1-.33-.12.5.5,0,0,1-.12-.6,10.71,10.71,0,0,1,4.15-4.23c2.93-1.69,8-2.85,9.86-1.76a1.54,1.54,0,0,1,.71,1c.41,1.74-1.58,4.85-1.81,5.2a.54.54,0,0,1-.44.23c-5.25-.17-11.08-.14-11.75.2A.45.45,0,0,1,189.87,204.77Zm11.45-6.15a16.58,16.58,0,0,0-7.26,2.07,10.06,10.06,0,0,0-3.16,2.87,103.42,103.42,0,0,1,10.74-.08c.76-1.23,1.75-3.26,1.53-4.2a.5.5,0,0,0-.25-.35A3.29,3.29,0,0,0,201.32,198.62Z" fill="#231f20"></path><path d="M197.54,219.61a16.25,16.25,0,0,0,9.58,3c6,.07,14.43-2.25,13-3.73s-10.07-2.11-10.07-2.11Z" fill="#231f20"></path><path d="M207.38,223.07h-.27a16.61,16.61,0,0,1-9.88-3.07.5.5,0,0,1,.2-.87L210,216.24a.38.38,0,0,1,.15,0c.91.06,8.89.69,10.39,2.26a1,1,0,0,1,.21,1.09C219.93,221.39,212.51,223.07,207.38,223.07Zm-8.59-3.23a16.83,16.83,0,0,0,8.33,2.23c5.83.05,12.46-2,12.68-2.89-.94-1-6.41-1.7-9.69-2Z" fill="#231f20"></path><path d="M237.93,208.28l-9.3-1.13s-7.88,10.13-32.09,14.64c-16.37,3-26.45-1.79-28.91-6.47,3.17-.86,9.2-2.44,9.2-2.44l-9.16-1.81c17.48-12.63,56.65-9.26,57.77-9l8.64-3.66-3.48,5.35Z" fill="#fff"></path><path d="M186.75,223.25c-11.2,0-17.71-4.17-19.56-7.7a.5.5,0,0,1,0-.43.49.49,0,0,1,.33-.28c2-.54,5.05-1.35,7.1-1.89l-7-1.39a.51.51,0,0,1-.39-.38.52.52,0,0,1,.2-.52c17.2-12.42,54.88-9.4,58-9.08l8.52-3.61a.49.49,0,0,1,.58.14.5.5,0,0,1,0,.59l-3.2,4.92,6.89,4.23a.5.5,0,0,1,.21.59.51.51,0,0,1-.53.34l-9-1.1c-1.33,1.56-9.78,10.43-32.21,14.61A54.5,54.5,0,0,1,186.75,223.25Zm-18.36-7.62c2.71,4.09,12,8.65,28.06,5.67,23.69-4.41,31.71-14.36,31.79-14.46a.49.49,0,0,1,.45-.19l7,.86-5.37-3.3a.53.53,0,0,1-.23-.32.51.51,0,0,1,.07-.38l2.59-4-7.14,3a.47.47,0,0,1-.31,0c-.34-.07-38.28-3.74-56.39,8.24l8,1.58a.49.49,0,0,1,.4.47.5.5,0,0,1-.37.5S171.67,214.75,168.39,215.63Z" fill="#231f20"></path><path d="M184.52,223.14a.49.49,0,0,1-.47-.34.5.5,0,0,1,.24-.6,15.14,15.14,0,0,0,3.48-9.44,9.35,9.35,0,0,0-4.65-7.63.5.5,0,0,1-.14-.69.49.49,0,0,1,.69-.14c3.83,2.53,5.56,6.13,5,10.41s-3.36,8.19-4,8.4A.41.41,0,0,1,184.52,223.14Z" fill="#231f20"></path><ellipse cx="196.91" cy="213.77" rx="6.48" ry="3.66" fill="#fff"></ellipse><path d="M196.91,217.93c-3.91,0-7-1.83-7-4.16s3.06-4.16,7-4.16,7,1.83,7,4.16S200.82,217.93,196.91,217.93Zm0-7.32c-3.24,0-6,1.45-6,3.16s2.73,3.16,6,3.16,6-1.45,6-3.16S200.15,210.61,196.91,210.61Z" fill="#231f20"></path><ellipse cx="203.65" cy="205.18" rx="6.48" ry="3.66" fill="#fff"></ellipse><path d="M203.65,209.34c-3.92,0-7-1.82-7-4.16s3.06-4.16,7-4.16,7,1.83,7,4.16S207.56,209.34,203.65,209.34Zm0-7.32c-3.24,0-6,1.45-6,3.16s2.74,3.16,6,3.16,6-1.44,6-3.16S206.88,202,203.65,202Z" fill="#231f20"></path><ellipse cx="214.02" cy="210.91" rx="6.12" ry="3.45" transform="matrix(0.99, -0.14, 0.14, 0.99, -26.67, 31.03)" fill="#fff"></ellipse><path d="M213,214.93a8.52,8.52,0,0,1-3.16-.55,3.43,3.43,0,0,1-2.42-2.57c-.3-2.19,2.35-4.31,6-4.81a9.37,9.37,0,0,1,4.67.44,3.44,3.44,0,0,1,2.42,2.57c.3,2.2-2.34,4.31-6,4.82A11.4,11.4,0,0,1,213,214.93Zm2-7a11.11,11.11,0,0,0-1.4.1c-3,.41-5.38,2.1-5.17,3.69.1.72.74,1.35,1.8,1.77a8.56,8.56,0,0,0,4.17.39c3-.42,5.39-2.11,5.17-3.69h0c-.1-.73-.74-1.36-1.79-1.78A7.79,7.79,0,0,0,215,207.89Z" fill="#231f20"></path><path d="M193.52,211.59s-2.22,1.55-1.8,2.18,5.18.28,5-.35S193.52,211.59,193.52,211.59Z" fill="#d1d3d4"></path><path d="M199.45,215.71c.88,0,3.8-1.17,2.92-2s-3.21-.39-3.24-.11S198.57,215.74,199.45,215.71Z" fill="#d1d3d4"></path><path d="M197.33,214c-.13-.06-4.36.75-4,1.22s3.95,1.59,4.51,1S197.76,214.15,197.33,214Z" fill="#d1d3d4"></path><path d="M196.82,211.33s-.24,1.92.56,1.92,3.43-.51,3.05-1S197.62,211,196.82,211.33Z" fill="#d1d3d4"></path><path d="M209.93,209.76c-.17,0-1.55,1.62-1,2.25s5.25-.53,5.25-.53Z" fill="#d1d3d4"></path><path d="M214.76,211.69s-4.4.67-4.09,1.09,4.72.81,5,.25S214.76,211.69,214.76,211.69Z" fill="#d1d3d4"></path><path d="M217.32,209.44l-.27.13c-.71.32-2.49,1.19-2.12,1.56s1.41,1.37,1.83,1.2,2.32-1.13,1.76-2.15" fill="#d1d3d4"></path><path d="M216.3,208.91s-1.19,2.12-2.11,1.73-2.88-.92-2.57-1.27,3.21-1.41,4.44-.42" fill="#d1d3d4"></path><path d="M208.21,204.9s-4.89-.6-4.82-.07.74,2.53,1.72,2.61,3.84-1.55,3.66-2.12S208.21,204.9,208.21,204.9Z" fill="#d1d3d4"></path><path d="M203.39,206.91c.12-.08-.53-2.18-1.27-2.26s-3.66,0-3.55.67S201.7,207.93,203.39,206.91Z" fill="#d1d3d4"></path><path d="M202.61,204s-1.3-1.41-1.55-1.27-2.35.85-1.9,1.17S202.61,204,202.61,204Z" fill="#d1d3d4"></path><path d="M203.53,204c0-.11-1.23-1.38-.53-1.45s5.77,1,5.07,1.41S203.53,204,203.53,204Z" fill="#d1d3d4"></path><path d="M226.41,239a9,9,0,0,1-5.66,1.87,10.78,10.78,0,0,1-6-1.87l-2.23-24.5h16.14Z" fill="#fff"></path><path d="M220.75,241.4a11.26,11.26,0,0,1-6.34-2,.57.57,0,0,1-.2-.36L212,214.57a.47.47,0,0,1,.13-.39.48.48,0,0,1,.37-.17h16.14a.5.5,0,0,1,.38.17.54.54,0,0,1,.13.39l-2.23,24.49a.5.5,0,0,1-.16.33A9.37,9.37,0,0,1,220.75,241.4Zm-5.55-2.66a10.5,10.5,0,0,0,5.55,1.65,8.74,8.74,0,0,0,5.17-1.63L228.08,215h-15Zm11.21.28h0Z" fill="#231f20"></path><path d="M215,220.21l1.28,16.68s2.58,3.68,8.55.44l1.93-17.12s-1.9-1.58-5.88-1.4A12.53,12.53,0,0,0,215,220.21Z" fill="#d1d3d4"></path><ellipse cx="220.56" cy="214.52" rx="8.07" ry="2.35" fill="#fff"></ellipse><path d="M220.56,217.37c-4.26,0-8.57-1-8.57-2.85,0-3.74,17.14-3.74,17.14,0C229.13,216.39,224.82,217.37,220.56,217.37Zm0-4.7c-4.9,0-7.57,1.22-7.57,1.85s2.67,1.85,7.57,1.85,7.57-1.22,7.57-1.85S225.46,212.67,220.56,212.67Z" fill="#231f20"></path><path d="M249,195s-17.4,6.54-20.37,6c-3.28-1.6-8.31-1.35-8.16.42s1.85,4.48,7,3.8,22.24-8.35,22.24-8.35Z" fill="#fff"></path><path d="M226,205.79a6.66,6.66,0,0,1-4.32-1.31,4.45,4.45,0,0,1-1.68-3.06,1.47,1.47,0,0,1,.71-1.34c1.54-1.05,5.46-.86,8.1.4,2.52.33,15.28-4.21,20-6a.5.5,0,0,1,.64.29l.75,1.87a.51.51,0,0,1-.25.65c-.7.31-17.19,7.71-22.39,8.39A13.32,13.32,0,0,1,226,205.79Zm-2.22-5.4a4.8,4.8,0,0,0-2.51.52c-.29.2-.28.37-.27.43a3.42,3.42,0,0,0,1.31,2.36c1.15.94,2.94,1.27,5.16,1,4.6-.6,19-6.92,21.67-8.12l-.39-1c-3.16,1.18-17.35,6.37-20.17,5.86l-.13,0A11.28,11.28,0,0,0,223.75,200.39Z" fill="#231f20"></path><path d="M298.08,197.39c-.7.38-15.76,17.65-18.95,17.27s-30-10.13-30-10.13-1.5-3.38-2.44-4.13-9.19-5.07-9.57-4.13,1.43,2.36,1.43,2.36-.68,5.71-.12,7.4,7.7,5.07,7.7,5.07,23.75,20.83,35,18,26.75-13.61,27.31-18.31S307.09,192.51,298.08,197.39Z" fill="#fff"></path><path d="M278.82,229.88c-11.76,0-31.55-17.09-33-18.36-1.35-.65-7.3-3.56-7.89-5.33-.53-1.59-.08-6.1.06-7.35-.57-.5-1.78-1.71-1.36-2.76a.69.69,0,0,1,.48-.41c1.56-.4,9.16,3.77,9.87,4.34.9.72,2.13,3.33,2.49,4.12,2.46.89,26.77,9.69,29.73,10,2.19.25,12.18-10.43,15.94-14.45a26.32,26.32,0,0,1,2.72-2.77c2.58-1.4,4.83-1.47,6.69-.2,3.91,2.65,4.78,10.64,4.37,14.12-.62,5.12-16.66,16-27.69,18.73A9.75,9.75,0,0,1,278.82,229.88Zm-41.29-33.25a3.81,3.81,0,0,0,1.29,1.6.51.51,0,0,1,.19.46c-.19,1.55-.57,5.88-.14,7.18.34,1,4.55,3.41,7.43,4.77a.5.5,0,0,1,.12.08c.24.21,23.67,20.63,34.56,17.91,11.28-2.82,26.41-13.51,26.93-17.88.42-3.48-.54-10.87-3.93-13.18-1.52-1-3.42-.95-5.64.25-.22.18-1.31,1.35-2.48,2.59-8.47,9-14.59,15-16.79,14.75-3.21-.38-29-9.76-30.15-10.16a.5.5,0,0,1-.28-.27,15.68,15.68,0,0,0-2.3-3.94C245.41,200,239,196.77,237.53,196.63Zm60.55.76h0Z" fill="#231f20"></path></g></svg>