<svg id="Layer_1" data-name="Layer 1" xmlns="http://www.w3.org/2000/svg" viewBox="0 0 400 300" width="406" height="306" class="illustration styles_illustrationTablet__1DWOa"><title>_</title><path d="M359.4,132.67c-11.5-37-48.39-60.16-83.06-72.39C225,42.16,164.17,52.73,112.17,63.51c-19.37,4-38.82,11.49-52.3,26-25,26.85-31.71,86-7.95,115.67,10.58,13.2,28.24,18.13,44.89,21.11,63.35,11.32,128.33,5.05,192.51.36,14.88-1.09,30.38-2.28,43.22-9.87C359.79,200.63,368.29,161.26,359.4,132.67Z" fill="#dddbdb" opacity="0.18"></path><rect x="110.64" y="59.33" width="4.43" height="79.15" fill="#ffd200"></rect><rect x="73.81" y="117.49" width="93.4" height="10.86" fill="#68e1fd"></rect><rect x="73.81" y="117.49" width="93.4" height="10.86" rx="2.98" fill="#68e1fd"></rect><polygon points="163.38 128.35 158.78 190.45 156.06 227.09 154.25 251.5 86.78 251.5 81.43 179.34 78.6 141.24 77.65 128.35 163.38 128.35" fill="#68e1fd"></polygon><path d="M158.78,190.45l-2.72,36.64c-1.34-.57-2.69-1.16-4.06-1.76a176,176,0,0,1-37.06-21.68C103.72,195,95.1,187.08,83,180.18l-1.53-.84-2.83-38.1c17.28,4.94,33.28,16,47.38,27.23,10.29,8.18,19.63,15.51,32.16,21.68Z" fill="#ffd200"></path><g opacity="0.4"><polygon points="163.38 128.35 158.78 190.45 156.06 227.09 154.25 251.5 86.78 251.5 81.43 179.34 78.6 141.24 77.65 128.35 163.38 128.35" fill="#fff"></polygon><path d="M158.78,190.45l-2.72,36.64c-1.34-.57-2.69-1.16-4.06-1.76a176,176,0,0,1-37.06-21.68C103.72,195,95.1,187.08,83,180.18l-1.53-.84-2.83-38.1c17.28,4.94,33.28,16,47.38,27.23,10.29,8.18,19.63,15.51,32.16,21.68Z" fill="#fff"></path></g><path d="M182.54,230.83H320a0,0,0,0,1,0,0v5.86a14.81,14.81,0,0,1-14.81,14.81H197.35a14.81,14.81,0,0,1-14.81-14.81v-5.86A0,0,0,0,1,182.54,230.83Z" fill="#68e1fd"></path><path d="M183.91,224.09c-2.64,1.25-4.82,3.08-5.47,6.06-.43,2-.48,4.3.9,5.86a6.59,6.59,0,0,0,2.9,1.7c4,1.34,7.56.86,11.55.2,4.51-.75,8.77,1.36,13.29,1.64,2.93.18,5.48-.37,8.29.07a25.24,25.24,0,0,0,9.72-.08c3.95-.84,7.9-2.11,11.93-1.76,4.5.39,8.73,2.79,13.24,2.48,4-.28,7.54-2.63,11.52-2.87,4.38-.27,8.52,2.07,12.91,2.22,5.07.17,9.77-2.56,14.81-3.06,3.53-.34,7.07.42,10.59.92a73.52,73.52,0,0,0,12.14.74c3.42-.08,7.17-.53,9.53-2.92,2.17-2.21,3.42-7.44,1.89-10.29-1.39-2.6-5.71-3.41-8.42-4.13-31.94-8.57-65.68-9.2-98.72-6.52a69.48,69.48,0,0,0-14.25,2.23,36.58,36.58,0,0,0-10.52,5.08A42.68,42.68,0,0,0,183.91,224.09Z" fill="#68e1fd"></path><path d="M183.91,224.09c-2.64,1.25-4.82,3.08-5.47,6.06-.43,2-.48,4.3.9,5.86a6.59,6.59,0,0,0,2.9,1.7c4,1.34,7.56.86,11.55.2,4.51-.75,8.77,1.36,13.29,1.64,2.93.18,5.48-.37,8.29.07a25.24,25.24,0,0,0,9.72-.08c3.95-.84,7.9-2.11,11.93-1.76,4.5.39,8.73,2.79,13.24,2.48,4-.28,7.54-2.63,11.52-2.87,4.38-.27,8.52,2.07,12.91,2.22,5.07.17,9.77-2.56,14.81-3.06,3.53-.34,7.07.42,10.59.92a73.52,73.52,0,0,0,12.14.74c3.42-.08,7.17-.53,9.53-2.92,2.17-2.21,3.42-7.44,1.89-10.29-1.39-2.6-5.71-3.41-8.42-4.13-31.94-8.57-65.68-9.2-98.72-6.52a69.48,69.48,0,0,0-14.25,2.23,36.58,36.58,0,0,0-10.52,5.08A42.68,42.68,0,0,0,183.91,224.09Z" opacity="0.1"></path><rect x="176.98" y="196.74" width="148.57" height="14.77" rx="4.98" fill="#24285b"></rect><rect x="176.98" y="211.5" width="148.57" height="14.77" rx="4.98" fill="#24285b"></rect><polygon points="277.8 221.13 315.46 210.59 248.14 211.72 277.8 221.13" fill="#ffd200"></polygon><path d="M180.31,189.49c0-28.17,31.77-51,71-51s71,22.84,71,51Z" fill="#68e1fd"></path><polyline points="189.24 199.42 224.5 216.78 296.09 196.74 189.24 198.53" fill="#ffd200"></polyline><path d="M177,191.67a9.22,9.22,0,0,0-1.83,5.94c0,3.68,2.13,7.61,5.68,8.57,4.54,1.23,8.82-2.64,13.46-3.41,6-1,12.1,3.31,18,1.87,2.45-.6,4.64-2.15,7.15-2.43,3.85-.44,7.4,2.18,11.26,2.54,4.66.42,9.13-2.48,13.79-2.08,4,.34,7.65,3,11.59,2.45a23.22,23.22,0,0,0,5-1.83,18.42,18.42,0,0,1,10.71-.88c4.87,1.07,10.11,4.06,14.45,1.61,1.17-.67,2.11-1.67,3.22-2.43a9.14,9.14,0,0,1,5.81-1.57c2.61.19,5,1.47,7.37,2.57a26.13,26.13,0,0,0,16.85,2c4.61-.95,9.95-5.52,7.81-10.63-1.75-4.17-6.63-4.64-10.55-5.15s-8.2-.79-12.25-.94c-9.75-.36-19.5-.25-29.24-.48-14.7-.35-29.38-.92-44.05-1.83-14.86-.91-30.45-2.17-44.72,3C183.21,189.76,179.35,188.7,177,191.67Z" fill="#68e1fd"></path><path d="M177,191.67a9.22,9.22,0,0,0-1.83,5.94c0,3.68,2.13,7.61,5.68,8.57,4.54,1.23,8.82-2.64,13.46-3.41,6-1,12.1,3.31,18,1.87,2.45-.6,4.64-2.15,7.15-2.43,3.85-.44,7.4,2.18,11.26,2.54,4.66.42,9.13-2.48,13.79-2.08,4,.34,7.65,3,11.59,2.45a23.22,23.22,0,0,0,5-1.83,18.42,18.42,0,0,1,10.71-.88c4.87,1.07,10.11,4.06,14.45,1.61,1.17-.67,2.11-1.67,3.22-2.43a9.14,9.14,0,0,1,5.81-1.57c2.61.19,5,1.47,7.37,2.57a26.13,26.13,0,0,0,16.85,2c4.61-.95,9.95-5.52,7.81-10.63-1.75-4.17-6.63-4.64-10.55-5.15s-8.2-.79-12.25-.94c-9.75-.36-19.5-.25-29.24-.48-14.7-.35-29.38-.92-44.05-1.83-14.86-.91-30.45-2.17-44.72,3C183.21,189.76,179.35,188.7,177,191.67Z" opacity="0.1"></path><path d="M232.83,154.3a1.62,1.62,0,0,0-2.16-.57l-6.94,3.3a1.58,1.58,0,0,0-.57,2.15,1.62,1.62,0,0,0,2.16.57l6.94-3.3A1.58,1.58,0,0,0,232.83,154.3Z" opacity="0.1"></path><path d="M215.55,173.92a13.78,13.78,0,0,1-1.43-.41l-.34-.13-.17-.07h0L213,173a12.36,12.36,0,0,1-1.27-.74l-.56-.4-.09-.07-.32-.27a1.64,1.64,0,0,0-1.11-.46,1.58,1.58,0,0,0-1.12,2.69,14.24,14.24,0,0,0,6.17,3.18,1.58,1.58,0,1,0,.84-3Z" opacity="0.1"></path><path d="M257.52,158.64a16.78,16.78,0,0,1-3.09-.08,16.59,16.59,0,0,1-1.86-.39,1.58,1.58,0,1,0-.84,3,17.71,17.71,0,0,0,5.79.59,1.71,1.71,0,0,0,1.12-.46,1.63,1.63,0,0,0,.46-1.12A1.59,1.59,0,0,0,257.52,158.64Z" opacity="0.1"></path><path d="M251.88,173.14a19.87,19.87,0,0,0-3.44-4.1,1.66,1.66,0,0,0-1.12-.46,1.59,1.59,0,0,0-1.11.46,1.57,1.57,0,0,0-.46,1.12,1.55,1.55,0,0,0,.46,1.11,18.13,18.13,0,0,1,2.11,2.27,14.16,14.16,0,0,1,.84,1.19,1.65,1.65,0,0,0,.94.72,1.57,1.57,0,0,0,1.94-1.1A1.6,1.6,0,0,0,251.88,173.14Z" opacity="0.1"></path><path d="M305.35,163.68a1.82,1.82,0,0,0-1.11-.47l-6.18-.8a1.57,1.57,0,0,0-1.57,1.57,1.57,1.57,0,0,0,.46,1.12,1.87,1.87,0,0,0,1.11.46l6.18.81a1.55,1.55,0,0,0,1.11-.46,1.59,1.59,0,0,0,.46-1.12A1.53,1.53,0,0,0,305.35,163.68Z" opacity="0.1"></path><path d="M282.28,171.33a1.62,1.62,0,0,0-2.16-.57l-6.21,2.86a1.58,1.58,0,0,0-.57,2.16,1.63,1.63,0,0,0,2.16.56l6.22-2.86A1.58,1.58,0,0,0,282.28,171.33Z" opacity="0.1"></path><path d="M275.82,153.74l-5.07-6.2a1.59,1.59,0,0,0-2.23,0,1.62,1.62,0,0,0,0,2.23l5.07,6.2a1.57,1.57,0,0,0,2.23,0A1.63,1.63,0,0,0,275.82,153.74Z" opacity="0.1"></path><path d="M229.48,165.71l-4-1.32a1.59,1.59,0,0,0-1.94,1.1,1.63,1.63,0,0,0,1.11,1.94l4,1.32a1.58,1.58,0,0,0,1.94-1.1A1.61,1.61,0,0,0,229.48,165.71Z" opacity="0.1"></path><path d="M208.14,159.42a1.58,1.58,0,0,0-.94-.72,1.68,1.68,0,0,0-1.22.16l-2.95,1.6a1.64,1.64,0,0,0-.72.95,1.57,1.57,0,0,0,1.1,1.94,1.7,1.7,0,0,0,1.21-.16l3-1.61a1.58,1.58,0,0,0,.56-2.16Z" opacity="0.1"></path><path d="M305.89,179.51a22.34,22.34,0,0,0-6.19-4.6,1.61,1.61,0,0,0-2.16.56,1.59,1.59,0,0,0,.56,2.16,20.87,20.87,0,0,1,3.1,1.89l.32.24c-.37-.27,0,0,.11.1l.7.58c.46.41.91.85,1.33,1.3a1.59,1.59,0,0,0,2.23,0A1.61,1.61,0,0,0,305.89,179.51Z" opacity="0.1"></path><path d="M237.06,172.29a1.05,1.05,0,0,0-1.29-.73,1.07,1.07,0,0,0-.73,1.29s0,.19,0,.22,0,.24,0,.37,0,.46.07.69c0,.48.08,1,.1,1.45,0,1,0,1.93,0,2.9a1,1,0,0,0,1.05,1.05,1.08,1.08,0,0,0,1.05-1.05A30.56,30.56,0,0,0,237.06,172.29Z" opacity="0.1"></path><rect x="48.15" y="246.54" width="314.3" height="9.93" rx="4.44" fill="#e6e6e6"></rect></svg>