<svg xmlns="http://www.w3.org/2000/svg" viewBox="0 0 400 300" width="406" height="306" class="illustration styles_illustrationTablet__1DWOa"><g id="_414_restaurant_flatline" data-name="#414_restaurant_flatline"><path d="M173.7,129.85s5.07-19.9,6.2-18.77,1.5,5.63.19,9.2c0,0,9-13.7,10.88-12s6,5.44,5.45,8.63-10.09,18.77-10.09,18.77Z" fill="#fff"></path><path d="M186.33,136.26a.56.56,0,0,1-.25,0l-12.62-5.82a.6.6,0,0,1-.33-.69c3.17-12.45,5.35-18.92,6.47-19.23a.74.74,0,0,1,.72.19c1,1,1.42,3.85,1.07,6.64,2.57-3.69,6.93-9.49,9-9.76a1.2,1.2,0,0,1,1,.28c1.87,1.69,6.25,5.64,5.63,9.18-.58,3.27-9.77,18.34-10.16,19A.6.6,0,0,1,186.33,136.26Zm-11.93-6.74,11.7,5.39c2.81-4.62,9.3-15.67,9.73-18.11.51-2.9-3.68-6.67-5.25-8.09h-.07c-1.13,0-5.63,5.36-9.93,11.9a.59.59,0,0,1-1.05-.53c1.1-3,.92-6.7.24-8.13C178.73,113.85,176.35,121.91,174.4,129.52Z" fill="#231f20"></path><polygon points="72.15 217.51 73.52 236.66 146.72 236.66 132.08 210.19 72.15 217.51" fill="#fff"></polygon><path d="M146.72,237.16H73.52a.51.51,0,0,1-.5-.47l-1.36-19.14a.51.51,0,0,1,.43-.54L132,209.69a.49.49,0,0,1,.5.26l14.64,26.46a.5.5,0,0,1,0,.5A.52.52,0,0,1,146.72,237.16Zm-72.73-1h71.89l-14.07-25.43L72.69,218Z" fill="#231f20"></path><path d="M122.38,123.31l30,36.39L169.44,133l15,9.76s-14.67,44.75-27.21,45.43S120,162,120,162Z" fill="#e6626f"></path><line x1="308.88" y1="232.62" x2="333.42" y2="186.46" fill="#fff"></line><path d="M308.88,233.12a.52.52,0,0,1-.24-.05.51.51,0,0,1-.21-.68L333,186.23a.49.49,0,0,1,.67-.21.5.5,0,0,1,.21.68l-24.54,46.16A.5.5,0,0,1,308.88,233.12Z" fill="#231f20"></path><path d="M332.88,198.1s7.95,30.78,9.41,38.53l-61-1.9,3.09-49Z" fill="#e6626f"></path><path d="M293.11,124s-14,37.6-16.14,38.29-32.16-4.35-34.76-4.44-12.62,7.54-12.62,7.54,44.08,24.18,57.52,17.92,16.36-7.48,16.36-7.48S297,124,293.11,124Z" fill="#fff"></path><path d="M281.39,184.94c-17.17,0-50.49-18.15-52.08-19a.59.59,0,0,1-.07-1c1-.78,10.15-7.65,12.94-7.65h0c1,0,5.23.67,10.64,1.48,8.46,1.27,22.61,3.38,23.92,3,1.62-1.12,10.54-23.87,15.77-37.93a.62.62,0,0,1,.59-.39c1,0,3,.33,7.2,26.41,2.07,12.82,3.7,25.82,3.71,26a.6.6,0,0,1-.36.62s-3.09,1.3-16.34,7.47A14.32,14.32,0,0,1,281.39,184.94Zm-50.7-19.63c6.06,3.23,44.13,23.07,56.17,17.47,10.7-5,14.78-6.79,16-7.31-2.91-23.24-7.09-47.56-9.41-50.58-4.37,11.72-14.11,37.28-16.27,38-1.41.46-11.47-1-24.45-2.94-5.17-.77-9.62-1.44-10.5-1.47h0C240.49,158.45,234.55,162.44,230.69,165.31Z" fill="#231f20"></path><path d="M293.78,72.82c.18-.29.35-.57.54-.86,6.13-9.5,19.17-10.36,27.67-3.33A7.31,7.31,0,0,0,324,70a12.34,12.34,0,0,0,2.8.36c3.28.43,5.59,3.35,7.41,6.12,5.32,8.07,6.27,21.42,6.27,30.9,0,7.41-1.78,15-6.31,20.9-6.45,8.31-17.41,11.82-27.89,12.7-11.61,1-24.54-1.32-31.95-10.3-3.11-3.78-5-9-3.36-13.61,1.45-4,5.2-6.63,8-9.82C287.29,97.81,287.32,83.57,293.78,72.82Z" fill="#fff"></path><path d="M301.35,141.79c-11.91,0-21.76-3.81-27.48-10.74-2.88-3.5-5.31-9.06-3.45-14.18,1.07-3,3.34-5.2,5.54-7.36.87-.85,1.77-1.74,2.58-2.65,4.6-5.24,6.58-11.86,8.68-18.88,1.58-5.27,3.2-10.72,6.06-15.47h0q.25-.44.54-.87a17.81,17.81,0,0,1,12.42-8,20.46,20.46,0,0,1,16.13,4.54l.24.19a5.43,5.43,0,0,0,1.59,1.07,5.57,5.57,0,0,0,1.67.25c.34,0,.68,0,1,.08,3.5.46,5.92,3.49,7.83,6.38,4.23,6.43,6.37,16.93,6.36,31.23,0,5.91-1.13,14.41-6.44,21.26-7.22,9.33-19.38,12.18-28.3,12.93C304.63,141.72,303,141.79,301.35,141.79Zm-7.06-68.67c-2.78,4.62-4.38,10-5.94,15.2-2,6.83-4.15,13.89-8.93,19.32-.83.94-1.75,1.84-2.63,2.72-2.2,2.16-4.28,4.2-5.26,6.92-1.69,4.64.57,9.77,3.25,13,6.25,7.57,17.71,11.26,31.45,10.1,8.69-.74,20.51-3.5,27.47-12.48,5.1-6.59,6.18-14.81,6.19-20.55,0-14.06-2.07-24.34-6.17-30.57-1.76-2.67-4-5.46-7-5.86-.3,0-.6,0-.91-.07a6.5,6.5,0,0,1-2-.32,6.58,6.58,0,0,1-1.94-1.27l-.23-.19a19.33,19.33,0,0,0-15.2-4.29,16.67,16.67,0,0,0-11.61,7.48c-.18.28-.35.56-.52.84Z" fill="#231f20"></path><path d="M284.72,198.93s-1.12-30,.18-53.1c.73-12.93,4.83-15.91,8.21-21.82,6.23-10.9,36.17-12.44,48.53-.38s-8.76,74.47-8.76,74.47Z" fill="#e6626f"></path><path d="M302.28,113.91l-1.21,13.16,3.68,18.15,17.37-20.38c.66-11.78,1.52-23.53,1.7-35.31a1.11,1.11,0,0,0-.17-.74,1.07,1.07,0,0,0-1-.2L319.2,89l-.34-6.52a19.57,19.57,0,0,0-2.27,3.45l-9.65-.84-1.13-5.85a5.31,5.31,0,0,0-.88,3.06c-.13,1.08-.57,2.31-1.62,2.6a3.15,3.15,0,0,1-1.43-.06l-7.27-1.43c-.07,0-1.31,19.65-1.22,21.29C293.77,111.61,302.28,113.91,302.28,113.91Z" fill="#fff"></path><path d="M304.75,145.81l-.15,0a.58.58,0,0,1-.43-.46l-3.68-18.14a1,1,0,0,1,0-.17l1.16-12.68c-1.87-.62-8.49-3.25-8.84-9.6,0-.2.92-21.35,1.42-21.78a.6.6,0,0,1,.5-.13L302,84.26a2.78,2.78,0,0,0,1.17.07c.89-.25,1.13-1.67,1.18-2.1l.05-.45a4.8,4.8,0,0,1,1-2.94.57.57,0,0,1,.59-.17.58.58,0,0,1,.42.46l1.05,5.41,8.81.77a19.19,19.19,0,0,1,2.16-3.21.59.59,0,0,1,.64-.18.62.62,0,0,1,.41.53l.29,5.89,2.83-.34a1.67,1.67,0,0,1,1.53.41,1.64,1.64,0,0,1,.3,1.13c-.13,9-.68,18.17-1.21,27q-.26,4.16-.49,8.31a.54.54,0,0,1-.14.36L305.2,145.6A.57.57,0,0,1,304.75,145.81ZM301.67,127l3.42,16.87,16.45-19.3c.15-2.71.31-5.41.48-8.12.52-8.84,1.07-18,1.21-27a1.34,1.34,0,0,0,0-.35,1.31,1.31,0,0,0-.47,0l-3.46.42a.63.63,0,0,1-.46-.13.63.63,0,0,1-.21-.43l-.25-4.89a17.91,17.91,0,0,0-1.23,2.07.59.59,0,0,1-.58.32l-9.65-.85a.58.58,0,0,1-.53-.48l-.74-3.8c0,.17,0,.34-.05.51l-.05.46c-.2,1.67-.95,2.79-2,3.1a3.61,3.61,0,0,1-1.71,0l-6.63-1.3c-.26,3.38-1.22,19.19-1.15,20.55.35,6.39,8.37,8.65,8.45,8.67a.6.6,0,0,1,.44.63Z" fill="#231f20"></path><path d="M317.82,99.1A6.87,6.87,0,0,1,325.38,95c3.76,1,3.3,5.28,1.83,8a7,7,0,0,1-9.58,2.7" fill="#fff"></path><path d="M321.1,107.18a7.55,7.55,0,0,1-3.76-1,.59.59,0,0,1,.59-1,6.38,6.38,0,0,0,8.76-2.47c.84-1.52,1.38-3.77.7-5.36a3,3,0,0,0-2.15-1.72,6.3,6.3,0,0,0-6.86,3.69.59.59,0,1,1-1.12-.4,7.49,7.49,0,0,1,8.27-4.44,4.21,4.21,0,0,1,3,2.4c.9,2.09.16,4.76-.75,6.4a7.61,7.61,0,0,1-4.58,3.64A7.51,7.51,0,0,1,321.1,107.18Z" fill="#231f20"></path><path d="M303.44,91s-5.52,6.21-4.59,7.55,4.08,1,4.08,1" fill="#fff"></path><path d="M302,100.16c-1.13,0-2.85-.19-3.6-1.27-1-1.5,2.46-5.84,4.63-8.29a.61.61,0,0,1,.84,0,.6.6,0,0,1,.05.84c-2.65,3-4.77,6.18-4.54,6.84.52.74,2.43.82,3.52.7a.59.59,0,0,1,.66.52.59.59,0,0,1-.52.65A7.73,7.73,0,0,1,302,100.16Z" fill="#231f20"></path><path d="M302.28,113.91s4.92,1.39,11.24-1.94c0,0-3.1,9-11.89,9.06Z" fill="#231f20"></path><path d="M301.63,121.62a.6.6,0,0,1-.44-.19A.58.58,0,0,1,301,121l.65-7.12a.62.62,0,0,1,.25-.44.59.59,0,0,1,.5-.08c.05,0,4.79,1.28,10.8-1.89a.59.59,0,0,1,.66.07.6.6,0,0,1,.18.65c0,.09-3.34,9.44-12.45,9.45Zm1.18-7-.53,5.79c5.75-.33,8.82-4.85,10-7.21A17.19,17.19,0,0,1,302.81,114.63Z" fill="#231f20"></path><ellipse cx="310.27" cy="91.86" rx="2.09" ry="0.92" transform="translate(217.37 401.81) rotate(-89.81)" fill="#231f20"></ellipse><ellipse cx="298.43" cy="90.98" rx="2.09" ry="0.92" transform="translate(190.83 383.83) rotate(-86.78)" fill="#231f20"></ellipse><path d="M303.88,104.31a13.47,13.47,0,0,1-4.3-.83,3.26,3.26,0,0,0-.5-.16.61.61,0,0,1-.5-.68.59.59,0,0,1,.66-.5,6.21,6.21,0,0,1,.72.21c2,.66,7.2,2.42,10-3.45a.59.59,0,0,1,1.07.52C309.17,103.32,306.34,104.31,303.88,104.31Z" fill="#231f20"></path><path d="M341.17,136.77c-1.89,15.83-11.57,53.06-25,50.15s-41.86-25.77-42.57-26.5-10.66-3.27-12.39-6.38S259,141.82,259,141.82s-9.65-5.64-9.46-7.68,19.36,7,20.95,7.81c0,0,1.65-4.9,3.9-3.6s3.26,9.7,6.39,11.11,32.69,15.34,32.69,15.34,4.84-29.53,13.85-39.67C331.68,120.18,343.06,120.94,341.17,136.77Z" fill="#fff"></path><path d="M317.65,187.67a8.1,8.1,0,0,1-1.62-.17c-13.57-2.95-41.79-25.57-42.86-26.66a22.36,22.36,0,0,0-2.48-1c-3.46-1.25-8.69-3.16-10-5.52-1.61-2.9-2.18-10.48-2.29-12.16-3.13-1.84-9.68-6-9.48-8.08a.86.86,0,0,1,.46-.69c2.11-1.14,17.5,6.16,20.75,7.73.43-1,1.38-2.94,2.75-3.46a2,2,0,0,1,1.78.16c1.2.69,2,2.74,2.86,5.11s2,5.31,3.48,6c2.83,1.28,27.47,12.88,32,15,.85-4.83,5.55-29.84,13.86-39.19a8.67,8.67,0,0,1,9.78-2.22c4.14,1.86,6,7.08,5.14,14.32-1.45,12.16-8.24,41.38-18.94,49A8.92,8.92,0,0,1,317.65,187.67Zm-67.52-53.25c.46,1.13,4.43,4.14,9.13,6.88a.59.59,0,0,1,.29.48c0,.09.53,9,2.17,12,1.1,2,6.28,3.86,9.38,5A10.34,10.34,0,0,1,274,160c1.15,1.13,29.3,23.52,42.27,26.33a7.2,7.2,0,0,0,5.83-1.45c9.81-7,16.86-34.84,18.46-48.19.8-6.69-.83-11.47-4.45-13.1a7.44,7.44,0,0,0-8.41,1.93c-8.79,9.89-13.66,39.07-13.71,39.36a.56.56,0,0,1-.31.43.58.58,0,0,1-.53,0c-.29-.14-29.58-13.93-32.67-15.33-1.94-.88-3-3.81-4.1-6.64-.74-2-1.51-4-2.34-4.5a.85.85,0,0,0-.77-.08c-1,.36-1.91,2.25-2.28,3.36a.63.63,0,0,1-.34.36.62.62,0,0,1-.5,0c-2.47-1.32-17.3-8.05-20-8.05Z" fill="#231f20"></path><polygon points="237.88 167.42 264.61 152.65 242.93 92.27 219 109.67 237.88 167.42" fill="#fff"></polygon><path d="M237.88,168a.57.57,0,0,1-.22,0,.58.58,0,0,1-.34-.36l-18.88-57.75a.6.6,0,0,1,.22-.67l23.92-17.4a.59.59,0,0,1,.91.28l21.68,60.38a.6.6,0,0,1-.27.72l-26.73,14.77A.59.59,0,0,1,237.88,168ZM219.7,109.9l18.52,56.66,25.66-14.19L242.64,93.21Z" fill="#231f20"></path><path d="M241,161.62l-.13,0a.38.38,0,0,1-.22-.24L224.28,111.2a.39.39,0,0,1,.14-.43l16.19-11.26a.43.43,0,0,1,.33-.05.39.39,0,0,1,.24.23l18.58,50.54a.38.38,0,0,1-.16.45l-18.42,10.89A.41.41,0,0,1,241,161.62Zm-15.91-50.39,16.12,49.46L259,150.2l-18.31-49.8Z" fill="#d1d3d4"></path><polygon points="237.88 167.42 221.36 163.37 201.27 102.63 219 109.67 237.88 167.42" fill="#fff"></polygon><path d="M237.88,168h-.14L221.22,164a.59.59,0,0,1-.42-.39l-20.1-60.74a.6.6,0,0,1,.16-.62.61.61,0,0,1,.63-.12l17.73,7a.61.61,0,0,1,.35.37l18.87,57.75a.61.61,0,0,1-.12.59A.62.62,0,0,1,237.88,168Zm-16.06-5.14L237,166.59l-18.46-56.47-16.3-6.47Z" fill="#231f20"></path><path d="M242.64,151.52a1.64,1.64,0,0,1,1.49,1.35c.05.8-.68,1.41-1.34,1.87l-4.43,3.13a21,21,0,0,1,5.19-2.14,4.28,4.28,0,0,1,2.35-.11,1.67,1.67,0,0,1,1.21,1.81,2.31,2.31,0,0,1-1,1.21,16.75,16.75,0,0,1-5.14,2.61,8.46,8.46,0,0,0,2.83-1.3,6.08,6.08,0,0,1,2.89-1.08,2.3,2.3,0,0,1,2.37,1.63c.24,1.24-.93,2.31-2.11,2.78s-2.5.65-3.45,1.47a10.31,10.31,0,0,1,4.16-1.9A1.48,1.48,0,0,1,249,163a1.17,1.17,0,0,1-.2,1.68,5.92,5.92,0,0,1-1.74.82c-3.31,1.37-4.84,6-8.41,6.37-5.26.52-8.55-8.09-8-12.38S238.65,151,242.64,151.52Z" fill="#fff"></path><path d="M238.17,172.49a6.07,6.07,0,0,1-4.35-2.06,15.41,15.41,0,0,1-3.76-11c.62-4.6,8.17-9,12.66-8.48h0a2.23,2.23,0,0,1,2,1.91,2.88,2.88,0,0,1-1.59,2.39h0l.27-.07a4.64,4.64,0,0,1,2.69-.1,2.26,2.26,0,0,1,1.6,2.5,2.12,2.12,0,0,1-.37.77,2.75,2.75,0,0,1,2.35,2.06,2.54,2.54,0,0,1-.53,2,1.35,1.35,0,0,1,.7,1.25,2,2,0,0,1-.68,1.48,4.45,4.45,0,0,1-1.43.74l-.47.17a10.55,10.55,0,0,0-3.48,3c-1.42,1.6-2.89,3.24-5.1,3.46Zm3.73-20.42c-3.94,0-10.17,3.85-10.66,7.5a14.24,14.24,0,0,0,3.43,10,4.72,4.72,0,0,0,3.89,1.68c1.76-.17,3-1.58,4.33-3.07a11.5,11.5,0,0,1,3.92-3.26l.51-.2a3.27,3.27,0,0,0,1.06-.51.89.89,0,0,0,.28-.59.27.27,0,0,0-.07-.2.74.74,0,0,0-.54-.07,4.69,4.69,0,0,1-.86.45c-.37.14-.75.26-1.14.38a9,9,0,0,0-1.7.67l-.47.34a.59.59,0,0,1-.82-.09.59.59,0,0,1,.07-.82,3.84,3.84,0,0,1,.59-.43,11,11,0,0,1,3.84-1.62h0a1.78,1.78,0,0,0,.9-1.65,1.73,1.73,0,0,0-1.77-1.15,3.55,3.55,0,0,0-1,.2,16.3,16.3,0,0,1-2.91,1.56,5.54,5.54,0,0,1-1.71.61.59.59,0,0,1-.27-1.15,14.42,14.42,0,0,0,1.48-.53c.34-.18.67-.38,1-.59l.2-.12a11.6,11.6,0,0,1,1.65-.84l.62-.44a1.84,1.84,0,0,0,.75-.87c.11-.44-.34-.95-.81-1.1a3.62,3.62,0,0,0-2,.12,20,20,0,0,0-5,2.08.6.6,0,0,1-.8-.2.59.59,0,0,1,.16-.8l4.43-3.13c.55-.39,1.12-.86,1.08-1.35s-.52-.74-1-.8h0A4.92,4.92,0,0,0,241.9,152.07Z" fill="#231f20"></path><polygon points="323.71 101.86 320.14 110.49 326.71 111.06 323.71 101.86" fill="#231f20"></polygon><path d="M326.71,111.65h0l-6.57-.57a.55.55,0,0,1-.45-.28.59.59,0,0,1-.05-.53l3.57-8.64a.59.59,0,0,1,1.11,0l3,9.2a.6.6,0,0,1-.57.78ZM321,110l4.87.42-2.23-6.82Z" fill="#231f20"></path><path d="M90.85,114.15S61,120.59,58.65,131.78s6.89,84.91,11.63,93.05L136,225s-8.84-67.8-9.52-79-2.37-21-4.07-22.71S96.28,109.75,90.85,114.15Z" fill="#e6626f"></path><path d="M87.65,120.43c.51,1.63,23.88,56,23.88,56L107.21,127Z" fill="#231f20"></path><path d="M111.53,176.9a.49.49,0,0,1-.46-.3c-.95-2.22-23.39-54.38-23.89-56a.49.49,0,0,1,.12-.5.51.51,0,0,1,.51-.12l19.56,6.54a.5.5,0,0,1,.34.43L112,176.36a.51.51,0,0,1-.38.53Zm-23-55.65c2.33,5.69,14.65,34.41,22.25,52.1l-4-46Z" fill="#231f20"></path><path d="M87.2,111.32a9.38,9.38,0,0,1-5-.42,3,3,0,0,1-1.41-1,1.29,1.29,0,0,1,0-1.6c.67-.67,2.12-.2,2.56-1-4.44-4.9-5.8-11.74-5.7-18.13a23.86,23.86,0,0,1,2.14-9.51c.46-1,3.78-7.56,5.11-7.26l-6.83-1.56,8.07-2.1c2.18-.57,4.52-1.13,6.65-.37l-7.47-2.75a32.82,32.82,0,0,1,27.48-.23l-3.32-4.87a19.5,19.5,0,0,1,12.89,7.68,17,17,0,0,1,2.57,14.66c-.72,2.35-2.31,5.1-4.59,6.27-2.49,1.27-5.31,1-7.58,3-2.44,2.09-4.22,5.32-6.47,7.7a31.39,31.39,0,0,1-12.83,8.41c-1.82.6-2.3,1.52-3.9,2.32A9.24,9.24,0,0,1,87.2,111.32Z" fill="#fff"></path><path d="M85.42,112a9.51,9.51,0,0,1-3.42-.63,3.37,3.37,0,0,1-1.65-1.12,1.78,1.78,0,0,1,.08-2.24,2.59,2.59,0,0,1,1.54-.59,3,3,0,0,0,.68-.14c-4.69-5.44-5.59-12.81-5.51-18.1a24.41,24.41,0,0,1,2.19-9.71c0-.06,2.29-5,4.22-6.84L78,71.34a.5.5,0,0,1,0-1L86,68.27a24,24,0,0,1,3.2-.68L85.14,66.1a.5.5,0,0,1-.33-.44.52.52,0,0,1,.29-.48,33.21,33.21,0,0,1,26.31-.91l-2.36-3.46a.5.5,0,0,1,.49-.78,19.91,19.91,0,0,1,13.23,7.89A17.59,17.59,0,0,1,125.41,83c-.72,2.35-2.37,5.31-4.85,6.57a14.42,14.42,0,0,1-3.25,1.08,9.62,9.62,0,0,0-4.23,1.82,27.48,27.48,0,0,0-3.72,4.31,38.73,38.73,0,0,1-2.7,3.35,31.84,31.84,0,0,1-13,8.54,6.93,6.93,0,0,0-2.15,1.21A10,10,0,0,1,89.79,111a9.33,9.33,0,0,1-2.5.84h0A9.87,9.87,0,0,1,85.42,112ZM84.78,72.9c-.82.06-3.48,4.62-4.54,7a23.53,23.53,0,0,0-2.1,9.32c-.08,5.22.82,12.54,5.57,17.78a.5.5,0,0,1,.07.57,2,2,0,0,1-1.68.86,1.83,1.83,0,0,0-1,.31.8.8,0,0,0,0,1,2.56,2.56,0,0,0,1.18.77,8.71,8.71,0,0,0,4.75.4h0a8.56,8.56,0,0,0,2.24-.75,9.9,9.9,0,0,0,1.53-1,7.84,7.84,0,0,1,2.44-1.36,30.9,30.9,0,0,0,12.62-8.27,39,39,0,0,0,2.63-3.26,28,28,0,0,1,3.87-4.48,10.42,10.42,0,0,1,4.65-2,13.63,13.63,0,0,0,3-1c2.19-1.12,3.68-3.82,4.34-6A16.56,16.56,0,0,0,122,68.5a18.84,18.84,0,0,0-11.41-7.27l2.65,3.88a.5.5,0,0,1-.62.74,32.24,32.24,0,0,0-25.95-.27L93,67.91a.5.5,0,0,1-.34.94c-2-.73-4.44-.11-6.36.39l-6.08,1.58L85,71.92a.5.5,0,0,1-.22,1Z" fill="#231f20"></path><path d="M119.09,92.57s5.42,9.28,4.09,11.06-5.32.33-5.32.33" fill="#fff"></path><path d="M120.86,105a10.29,10.29,0,0,1-3.17-.59.5.5,0,0,1,.34-.94c1,.37,3.85,1.06,4.75-.16.7-.94-1.59-6.18-4.12-10.5a.5.5,0,0,1,.87-.51c1.31,2.24,5.47,9.71,4,11.61A3.25,3.25,0,0,1,120.86,105Z" fill="#231f20"></path><path d="M118.49,80.68c3.59,3.28,2.14,9.72,1.87,13.94q-.56,8.91-1.53,17.78c-.42,3.75-10.17,3.29-11.83,2.07l.21,12.5s-2.67,6.76-10.33,2.68-9.23-9.22-9.23-9.22l1.61-17.13s6.43.4,10.67-7.06S104.66,77,104.66,77,115,77.48,118.49,80.68Z" fill="#fff"></path><path d="M101.43,131.46a10.36,10.36,0,0,1-4.79-1.37c-7.76-4.13-9.4-9.29-9.47-9.51a.61.61,0,0,1,0-.19l1.6-17.14a.51.51,0,0,1,.53-.45c.25,0,6.19.28,10.21-6.81,4.12-7.26,4.66-18.92,4.66-19a.51.51,0,0,1,.17-.35.46.46,0,0,1,.36-.13c.43,0,10.54.55,14.14,3.83h0c3.17,2.9,2.65,8,2.24,12.06-.09.8-.16,1.57-.21,2.28-.37,5.92-.89,11.91-1.54,17.81a3.18,3.18,0,0,1-2.2,2.53c-2.69,1.18-7.45,1-9.6.27l.19,11.7a.64.64,0,0,1,0,.2,7.43,7.43,0,0,1-4,3.91A6.49,6.49,0,0,1,101.43,131.46ZM88.16,120.37c.25.68,2.12,5.2,9,8.84,2.37,1.25,4.46,1.56,6.21.92a6.44,6.44,0,0,0,3.39-3.26l-.21-12.39a.49.49,0,0,1,.27-.45.51.51,0,0,1,.53,0c1.08.79,6.54,1.27,9.42,0,1-.44,1.53-1,1.61-1.73.64-5.88,1.16-11.86,1.53-17.76,0-.72.13-1.51.21-2.32.39-3.86.88-8.66-1.92-11.22h0c-2.9-2.65-10.94-3.39-13-3.54-.14,2.38-1,12.29-4.76,19s-9,7.25-10.66,7.31Z" fill="#231f20"></path><path d="M118.93,108s-4.76,2.58-7-2.32" fill="#fff"></path><path d="M116.17,109.14a5,5,0,0,1-1.59-.25,5.22,5.22,0,0,1-3.06-3,.5.5,0,0,1,.92-.41,4.28,4.28,0,0,0,2.45,2.5,5.42,5.42,0,0,0,3.8-.42.5.5,0,0,1,.68.21.49.49,0,0,1-.2.67A6.94,6.94,0,0,1,116.17,109.14Z" fill="#231f20"></path><path d="M107.49,95.75a8.05,8.05,0,0,0-1.44-4.17,11.27,11.27,0,0,0-2-2.82,3.91,3.91,0,0,0-3.15-1.15,3.64,3.64,0,0,0-2.43,1.71,6.88,6.88,0,0,0-.9,2.91,12.74,12.74,0,0,0,5.25,11.63l-.31-.37" fill="#fff"></path><path d="M102.82,104.36a.52.52,0,0,1-.29-.09,13.34,13.34,0,0,1-5.46-12.1,7.18,7.18,0,0,1,1-3.11,4.11,4.11,0,0,1,2.78-2,4.38,4.38,0,0,1,3.56,1.29,12.28,12.28,0,0,1,2.1,2.93,8.54,8.54,0,0,1,1.5,4.44.49.49,0,0,1-.52.48.51.51,0,0,1-.48-.52,7.67,7.67,0,0,0-1.37-3.9,11.27,11.27,0,0,0-1.91-2.7,3.4,3.4,0,0,0-2.73-1,3.12,3.12,0,0,0-2.08,1.49,6.28,6.28,0,0,0-.84,2.69A12.37,12.37,0,0,0,102.49,103a.5.5,0,0,1,.41.18l.3.37a.5.5,0,0,1-.38.82Z" fill="#231f20"></path><path d="M107,114.47s-5-1.85-7.13-5.45c0,0-.16,9.07,7.44,12.12Z" fill="#231f20"></path><path d="M107.31,121.64a.65.65,0,0,1-.19,0c-7.83-3.14-7.75-12.49-7.75-12.58a.52.52,0,0,1,.37-.48.5.5,0,0,1,.56.23c2,3.4,6.83,5.22,6.88,5.23a.52.52,0,0,1,.32.45l.31,6.66a.49.49,0,0,1-.21.43A.53.53,0,0,1,107.31,121.64Zm-6.81-10.93c.36,2.56,1.63,7.38,6.27,9.64l-.25-5.53A17.56,17.56,0,0,1,100.5,110.71Z" fill="#231f20"></path><ellipse cx="115.94" cy="88.27" rx="2.13" ry="0.84" transform="translate(4.2 181.81) rotate(-77.22)" fill="#231f20"></ellipse><polygon points="111.45 229.05 311.95 229.05 279.43 193.58 143.96 193.58 111.45 229.05" fill="#fff"></polygon><path d="M312,229.54H111.45a.48.48,0,0,1-.36-.81l32.51-35.48a.52.52,0,0,1,.36-.16H279.43a.48.48,0,0,1,.36.16l32.51,35.48a.48.48,0,0,1-.35.81Zm-199.4-1H310.84l-31.62-34.51h-135Z" fill="#231f20"></path><path d="M187.9,219h0l-56.36-.76a.53.53,0,0,1-.41-.85c1.09-1.36,10.7-13.26,12.95-14.41a.93.93,0,0,1,.24-.05l53.3.37a.53.53,0,0,1,.43.82l-9.7,14.64A.52.52,0,0,1,187.9,219Zm-55.28-1.79,55,.73,9-13.59L144.44,204C142.8,205,136.77,212.07,132.62,217.19Z" fill="#d1d3d4"></path><rect x="111.34" y="229.22" width="200.77" height="10.25" transform="translate(423.46 468.69) rotate(-180)" fill="#231f20"></rect><path d="M312.12,240H111.34a.53.53,0,0,1-.53-.53V229.22a.53.53,0,0,1,.53-.53H312.12a.52.52,0,0,1,.52.53v10.25A.52.52,0,0,1,312.12,240Zm-200.25-1.06H311.59v-9.19H111.87Z" fill="#231f20"></path><path d="M73.22,132.12,89.5,189.75l49.2-5.6.65,18.44s-46.8,7.85-60.36,4.12-20.34-46.45-23.73-58S60,119.24,73.22,132.12Z" fill="#e6626f"></path><path d="M126.57,184.86c-12.59,0-30.3-.13-31.42-.88-1.57-1-18.22-41.25-21.54-49.3a.49.49,0,0,1,.27-.65.5.5,0,0,1,.65.27c7.82,18.95,19.92,47.6,21.21,48.88,1.46.65,26,.75,42.15.65h0a.5.5,0,0,1,0,1C135.92,184.84,131.66,184.86,126.57,184.86Z" fill="#231f20"></path><path d="M93.39,209.7c-5,0-9.19-.58-11.46-2.07-12.28-8.08-20.34-23.86-24-46.92a.49.49,0,0,1,.41-.57.51.51,0,0,1,.58.42c3.58,22.76,11.5,38.32,23.53,46.24,9.38,6.16,54.59-4.54,55-4.65a.5.5,0,0,1,.6.37.49.49,0,0,1-.37.6C136.31,203.47,110,209.7,93.39,209.7Z" fill="#231f20"></path><path d="M143.23,188.91s13.37-8.46,16.59-8c2.51.36,4.68,2.89,6.34,4.55,2.16,2.15,3.92,4.19,4.37,7.34a5.49,5.49,0,0,1-.89,4.32c-1.4,1.7-3.47,1.19-4.84-.18-1.84-1.84-3-2.27-4.84-1.81-4.79,2.67-16.27,2.73-16.27,2.73Z" fill="#fff"></path><path d="M167.5,198.7a4.41,4.41,0,0,1-3.05-1.41c-1.7-1.7-2.68-2.09-4.31-1.69-4.87,2.67-16,2.75-16.45,2.76h0a.5.5,0,0,1-.5-.48l-.46-8.95a.51.51,0,0,1,.23-.45c1.39-.87,13.63-8.53,16.93-8.07,2.37.34,4.38,2.4,6,4.05.22.22.43.44.64.64,2.1,2.09,4,4.25,4.51,7.63a6.07,6.07,0,0,1-1,4.71,3.25,3.25,0,0,1-2.38,1.25Zm-6.31-4.24c1.34,0,2.48.64,4,2.12a3.27,3.27,0,0,0,2.45,1.11,2.24,2.24,0,0,0,1.66-.89,5.27,5.27,0,0,0,.78-3.93c-.44-3.07-2.25-5.09-4.23-7.06l-.64-.65c-1.51-1.54-3.39-3.47-5.42-3.76-2.45-.34-12.14,5.35-16,7.77l.42,8.18c2.21,0,11.48-.38,15.55-2.66l.13-.05A5.58,5.58,0,0,1,161.19,194.46Z" fill="#231f20"></path><polygon points="138.7 185.13 146.02 185.6 147.06 199.05 138.98 200.9 138.7 185.13" fill="#231f20"></polygon><path d="M139,201.4a.51.51,0,0,1-.31-.11.47.47,0,0,1-.19-.38l-.28-15.77a.48.48,0,0,1,.15-.37.49.49,0,0,1,.38-.14l7.32.47a.49.49,0,0,1,.46.46l1,13.45a.5.5,0,0,1-.38.53l-8.08,1.85Zm.23-15.74.26,14.61,7.05-1.61-1-12.59Z" fill="#231f20"></path><path d="M130.91,180.84a.49.49,0,0,1-.49-.39l-10.09-47a.51.51,0,0,1,.39-.6.5.5,0,0,1,.59.39l10.09,47a.5.5,0,0,1-.39.59Z" fill="#231f20"></path><polygon points="184.45 142.8 186.33 135.67 173.57 126.66 169.06 134.73 184.45 142.8" fill="#231f20"></polygon><path d="M184.45,143.3a.59.59,0,0,1-.23-.05l-15.39-8.08a.5.5,0,0,1-.21-.68l4.51-8.07a.49.49,0,0,1,.72-.17l12.77,9a.49.49,0,0,1,.19.54l-1.87,7.13a.52.52,0,0,1-.28.33A.52.52,0,0,1,184.45,143.3Zm-14.7-8.77,14.38,7.54,1.63-6.19-12-8.49Z" fill="#231f20"></path><ellipse cx="211.7" cy="210.72" rx="12.59" ry="5.03" fill="#231f20"></ellipse><path d="M211.7,216.24c-7.33,0-13.07-2.43-13.07-5.52s5.74-5.52,13.07-5.52,13.07,2.43,13.07,5.52S219,216.24,211.7,216.24Zm0-10.07c-7.24,0-12.11,2.35-12.11,4.55s4.87,4.55,12.11,4.55,12.1-2.35,12.1-4.55S218.94,206.17,211.7,206.17Z" fill="#231f20"></path><path d="M201.48,193.19v16.35c0,2.26,4.58,4.09,10.22,4.09s10.21-1.83,10.21-4.09V193.19Z" fill="#fff"></path><path d="M211.7,214.11c-6,0-10.7-2-10.7-4.57V193.19a.47.47,0,0,1,.48-.48h20.43a.48.48,0,0,1,.49.48v16.35C222.4,212.1,217.7,214.11,211.7,214.11ZM202,193.68v15.86c0,1.7,4,3.6,9.73,3.6s9.73-1.9,9.73-3.6V193.68Z" fill="#231f20"></path><ellipse cx="211.7" cy="193.19" rx="10.21" ry="4.09" fill="#fff"></ellipse><path d="M211.7,197.76c-6,0-10.7-2-10.7-4.57s4.7-4.57,10.7-4.57,10.7,2,10.7,4.57S217.7,197.76,211.7,197.76Zm0-8.17c-5.74,0-9.73,1.9-9.73,3.6s4,3.6,9.73,3.6,9.73-1.89,9.73-3.6S217.43,189.59,211.7,189.59Z" fill="#231f20"></path><path d="M206,186.62a3,3,0,0,1,.53-2.61,9.75,9.75,0,0,1,1.75-1.36c1.05-.81,2-2.72,1.05-3.94a10.62,10.62,0,0,0,1.42.61,6.27,6.27,0,0,1,1.26,1,8.81,8.81,0,0,1,2.11,3.18,5.27,5.27,0,0,1-.63,5c-1.8,2.22-5.41,1.49-6.94-.66A3.69,3.69,0,0,1,206,186.62Z" fill="#e6626f"></path><path d="M211.23,192.34a.49.49,0,0,1-.45-.28c-.07-.16-1.71-3.84-1.2-5.86a.48.48,0,1,1,.94.23c-.35,1.41.71,4.25,1.15,5.23a.49.49,0,0,1-.24.64A.51.51,0,0,1,211.23,192.34Z" fill="#231f20"></path><path d="M184.94,212.69a.53.53,0,0,1-.45-.81l3.38-5.35a.53.53,0,0,1,.73-.16.52.52,0,0,1,.16.72l-3.38,5.35A.52.52,0,0,1,184.94,212.69Z" fill="#d1d3d4"></path><path d="M170.72,213.53c-4.69,0-9.68-1.27-9.68-3.62s5-3.63,9.68-3.63,9.67,1.27,9.67,3.63S175.41,213.53,170.72,213.53Zm0-6.19c-5.34,0-8.63,1.49-8.63,2.57s3.29,2.57,8.63,2.57,8.62-1.5,8.62-2.57S176.06,207.34,170.72,207.34Z" fill="#d1d3d4"></path><path d="M220.39,137.64c-2.54,0-6-3.71-8.28-9.13-2.58-6.1-2.6-11.73,0-12.82s6.61,2.84,9.19,8.94h0c2.59,6.11,2.6,11.74,0,12.83A2.31,2.31,0,0,1,220.39,137.64ZM213,116.25a1.78,1.78,0,0,0-.65.12c-2.11.9-1.91,6.32.43,11.85s6.11,9.44,8.21,8.55,1.92-6.32-.42-11.85C218.47,119.93,215.19,116.25,213,116.25Z" fill="#d1d3d4"></path><path d="M216.94,114.36a.25.25,0,0,1-.12,0L206.87,111a.36.36,0,0,1-.23-.47.37.37,0,0,1,.47-.23l9.95,3.38a.37.37,0,0,1,.23.47A.35.35,0,0,1,216.94,114.36Z" fill="#d1d3d4"></path><path d="M227.45,146.55h-.07L218,144.76a.36.36,0,0,1-.3-.43.38.38,0,0,1,.44-.3l9.38,1.79a.37.37,0,0,1,.3.43A.37.37,0,0,1,227.45,146.55Z" fill="#d1d3d4"></path><path d="M229,150.78h-.07L219.5,149a.38.38,0,0,1-.3-.44.37.37,0,0,1,.44-.29L229,150a.36.36,0,0,1,.3.43A.38.38,0,0,1,229,150.78Z" fill="#d1d3d4"></path><path d="M230.27,155.28h-.07l-9.39-1.79a.37.37,0,0,1,.14-.73l9.39,1.78a.38.38,0,0,1,.29.44A.36.36,0,0,1,230.27,155.28Z" fill="#d1d3d4"></path></g></svg>