<svg id="visual" viewBox="0 0 900 600" width="900" height="600" xmlns="http://www.w3.org/2000/svg" xmlns:xlink="http://www.w3.org/1999/xlink" version="1.1"><rect x="0" y="0" width="900" height="600" fill="#f5f5f5"></rect><path d="M0 359L30 365.3C60 371.7 120 384.3 180 372.3C240 360.3 300 323.7 360 321.5C420 319.3 480 351.7 540 377.8C600 404 660 424 720 424.2C780 424.3 840 404.7 870 394.8L900 385L900 0L870 0C840 0 780 0 720 0C660 0 600 0 540 0C480 0 420 0 360 0C300 0 240 0 180 0C120 0 60 0 30 0L0 0Z" fill="#e6626f" stroke-linecap="round" stroke-linejoin="miter"></path></svg>