<svg id="visual" viewBox="0 0 900 600" width="900" height="600" xmlns="http://www.w3.org/2000/svg" xmlns:xlink="http://www.w3.org/1999/xlink" version="1.1"><rect x="0" y="0" width="900" height="600" fill="#f5f5f5"></rect><path d="M0 311L30 306C60 301 120 291 180 300.7C240 310.3 300 339.7 360 341.3C420 343 480 317 540 296C600 275 660 259 720 259C780 259 840 275 870 283L900 291L900 601L870 601C840 601 780 601 720 601C660 601 600 601 540 601C480 601 420 601 360 601C300 601 240 601 180 601C120 601 60 601 30 601L0 601Z" fill="#27ae60" stroke-linecap="round" stroke-linejoin="miter"></path></svg>