<svg id="visual" viewBox="0 0 960 540" width="960" height="540" xmlns="http://www.w3.org/2000/svg" xmlns:xlink="http://www.w3.org/1999/xlink" version="1.1"><rect x="0" y="0" width="960" height="540" fill="#f5f5f5"></rect><path d="M259 540L264.2 517.5C269.3 495 279.7 450 333.5 405C387.3 360 484.7 315 517.7 270C550.7 225 519.3 180 494.7 135C470 90 452 45 443 22.5L434 0L960 0L960 22.5C960 45 960 90 960 135C960 180 960 225 960 270C960 315 960 360 960 405C960 450 960 495 960 517.5L960 540Z" fill="#27ae60"></path></svg>