<svg width="226" height="167" viewBox="0 0 226 167" fill="none" xmlns="http://www.w3.org/2000/svg">
<g filter="url(#filter0_d_353_4498)">
<rect x="21.3229" y="21.3229" width="182.562" height="124.354" rx="14.5521" fill="white" stroke="#D9D9D9" stroke-width="2.64583"/>
<path fill-rule="evenodd" clip-rule="evenodd" d="M64.1654 67.2703C66.6527 67.4801 69.14 66.0114 70.6946 64.1493C72.2232 62.2347 73.2337 59.6645 72.9746 57.0417C70.7723 57.1467 68.0518 58.5105 66.4972 60.425C65.0722 62.0774 63.8545 64.7525 64.1654 67.2703ZM93.7539 101.051V60.163H108.911C116.735 60.163 122.202 65.6182 122.202 73.5913C122.202 81.5643 116.632 87.072 108.704 87.072H100.024V101.051H93.7539ZM72.9484 67.7685C70.7571 67.6409 68.7577 68.4356 67.1427 69.0776C66.1034 69.4907 65.2233 69.8405 64.5538 69.8405C63.8024 69.8405 62.886 69.472 61.857 69.0582C60.5088 68.516 58.9674 67.8962 57.351 67.9259C53.6459 67.9784 50.2 70.1028 48.3086 73.4861C44.4222 80.2526 47.2981 90.2714 51.055 95.7791C52.8946 98.5067 55.0968 101.497 57.9987 101.392C59.2753 101.343 60.1937 100.948 61.1441 100.54C62.2382 100.07 63.3749 99.582 65.1497 99.582C66.863 99.582 67.9499 100.058 68.9933 100.514C69.9854 100.948 70.9381 101.365 72.3525 101.339C75.358 101.287 77.2494 98.6116 79.0889 95.884C81.0741 92.9565 81.9465 90.0994 82.0789 89.6659C82.0865 89.6411 82.0916 89.6242 82.0944 89.6157C82.0912 89.6125 82.0667 89.6011 82.0235 89.5811L82.0235 89.5811C81.3598 89.2736 76.2875 86.923 76.2389 80.6198C76.1901 75.3292 80.2621 72.6487 80.9031 72.2267L80.9033 72.2266C80.9422 72.201 80.9684 72.1837 80.9803 72.1747C78.3894 68.2931 74.3475 67.8735 72.9484 67.7685ZM133.655 101.365C137.593 101.365 141.246 99.3459 142.904 96.1461H143.034V101.051H148.837V80.6984C148.837 74.7973 144.174 70.9944 136.997 70.9944C130.338 70.9944 125.415 74.8498 125.234 80.1476H130.882C131.349 77.6298 133.655 75.9775 136.816 75.9775C140.65 75.9775 142.801 77.7872 142.801 81.118V83.3736L134.976 83.8456C127.695 84.2915 123.757 87.3076 123.757 92.553C123.757 97.8509 127.825 101.365 133.655 101.365ZM135.338 96.5138C131.996 96.5138 129.871 94.8877 129.871 92.3961C129.871 89.8259 131.918 88.331 135.83 88.0949L142.8 87.6491V89.957C142.8 93.7862 139.587 96.5138 135.338 96.5138ZM168.088 102.65C165.575 109.81 162.699 112.171 156.584 112.171C156.118 112.171 154.563 112.118 154.2 112.014V107.109C154.589 107.162 155.548 107.214 156.04 107.214C158.812 107.214 160.367 106.034 161.325 102.965L161.895 101.156L151.273 71.3878H157.828L165.212 95.5429H165.341L172.726 71.3878H179.099L168.088 102.65ZM100.023 65.5128H107.252C112.693 65.5128 115.802 68.4502 115.802 73.617C115.802 78.7837 112.693 81.7474 107.226 81.7474H100.023V65.5128Z" fill="black"/>
</g>
<defs>
<filter id="filter0_d_353_4498" x="0" y="0" width="225.208" height="167" filterUnits="userSpaceOnUse" color-interpolation-filters="sRGB">
<feFlood flood-opacity="0" result="BackgroundImageFix"/>
<feColorMatrix in="SourceAlpha" type="matrix" values="0 0 0 0 0 0 0 0 0 0 0 0 0 0 0 0 0 0 127 0" result="hardAlpha"/>
<feOffset/>
<feGaussianBlur stdDeviation="10"/>
<feComposite in2="hardAlpha" operator="out"/>
<feColorMatrix type="matrix" values="0 0 0 0 0 0 0 0 0 0 0 0 0 0 0 0 0 0 0.07 0"/>
<feBlend mode="normal" in2="BackgroundImageFix" result="effect1_dropShadow_353_4498"/>
<feBlend mode="normal" in="SourceGraphic" in2="effect1_dropShadow_353_4498" result="shape"/>
</filter>
</defs>
</svg>
