<svg width="226" height="167" viewBox="0 0 226 167" fill="none" xmlns="http://www.w3.org/2000/svg">
<g filter="url(#filter0_d_353_4628)">
<rect x="21.3229" y="21.3229" width="182.562" height="124.354" rx="14.5521" fill="white" stroke="#D9D9D9" stroke-width="2.64583"/>
<path fill-rule="evenodd" clip-rule="evenodd" d="M107.472 103.387V87.4007H115.723C119.103 87.4007 121.957 86.2679 124.283 84.0336L124.842 83.4672C129.091 78.8414 128.812 71.6351 124.283 67.3554C122.019 65.0897 118.917 63.8625 115.723 63.9254H102.478V103.387H107.472ZM107.473 82.5547V68.7716H115.849C117.648 68.7716 119.354 69.4639 120.626 70.7226C123.325 73.3659 123.387 77.7715 120.781 80.5092C119.509 81.8624 117.71 82.6176 115.849 82.5547H107.473ZM148.136 78.4951C145.996 76.5126 143.08 75.5057 139.389 75.5057C134.643 75.5057 131.076 77.2679 128.719 80.7609L133.123 83.5615C134.736 81.1699 136.939 79.9741 139.73 79.9741C141.498 79.9741 143.204 80.635 144.538 81.8308C145.841 82.9636 146.585 84.6 146.585 86.3307V87.4951C144.662 86.4251 142.243 85.8587 139.265 85.8587C135.791 85.8587 132.999 86.6769 130.921 88.3447C128.843 90.0125 127.788 92.2153 127.788 95.016C127.726 97.5649 128.812 99.988 130.735 101.624C132.689 103.387 135.171 104.268 138.086 104.268C141.529 104.268 144.259 102.726 146.337 99.6418H146.554V103.387H151.331V86.7398C151.331 83.2468 150.276 80.4776 148.136 78.4951ZM134.582 98.4147C133.558 97.6595 132.938 96.4322 132.938 95.1105C132.938 93.6315 133.62 92.4043 134.954 91.4287C136.319 90.4532 138.026 89.9497 140.042 89.9497C142.834 89.9183 145.006 90.5476 146.557 91.8064C146.557 93.9462 145.719 95.8028 144.075 97.3762C142.586 98.8867 140.569 99.7364 138.46 99.7364C137.064 99.7678 135.699 99.2958 134.582 98.4147ZM162.063 115.25L178.75 76.3867H173.322L165.599 95.7712H165.506L157.596 76.3867H152.168L163.117 101.656L156.914 115.25H162.063Z" fill="#3C4043"/>
<path d="M90.2316 83.9389C90.2316 82.3969 90.1075 80.855 89.8593 79.3445H68.7985V88.0612H80.8643C80.368 90.8619 78.7551 93.3793 76.3978 94.9527V100.617H83.5938C87.8122 96.6835 90.2316 90.8619 90.2316 83.9389Z" fill="#4285F4"/>
<path d="M68.7995 106.093C74.8169 106.093 79.9037 104.079 83.5948 100.617L76.3987 94.9528C74.3826 96.3374 71.8082 97.1242 68.7995 97.1242C62.9682 97.1242 58.0364 93.1277 56.2684 87.7781H48.8553V93.6312C52.6394 101.278 60.3627 106.093 68.7995 106.093Z" fill="#34A853"/>
<path d="M56.2691 87.7781C55.3385 84.9774 55.3385 81.925 56.2691 79.0929V73.2712H48.8548C45.6595 79.6593 45.6595 87.2117 48.8548 93.5997L56.2691 87.7781Z" fill="#FBBC04"/>
<path d="M68.7995 69.7472C71.9943 69.6842 75.065 70.9115 77.3603 73.1457L83.7499 66.6633C79.6866 62.8242 74.3516 60.7158 68.7995 60.7787C60.3627 60.7787 52.6394 65.6248 48.8553 73.2716L56.2684 79.1247C58.0364 73.7436 62.9682 69.7472 68.7995 69.7472Z" fill="#EA4335"/>
</g>
<defs>
<filter id="filter0_d_353_4628" x="0" y="0" width="225.208" height="167" filterUnits="userSpaceOnUse" color-interpolation-filters="sRGB">
<feFlood flood-opacity="0" result="BackgroundImageFix"/>
<feColorMatrix in="SourceAlpha" type="matrix" values="0 0 0 0 0 0 0 0 0 0 0 0 0 0 0 0 0 0 127 0" result="hardAlpha"/>
<feOffset/>
<feGaussianBlur stdDeviation="10"/>
<feComposite in2="hardAlpha" operator="out"/>
<feColorMatrix type="matrix" values="0 0 0 0 0 0 0 0 0 0 0 0 0 0 0 0 0 0 0.07 0"/>
<feBlend mode="normal" in2="BackgroundImageFix" result="effect1_dropShadow_353_4628"/>
<feBlend mode="normal" in="SourceGraphic" in2="effect1_dropShadow_353_4628" result="shape"/>
</filter>
</defs>
</svg>
